<?xml version="1.0" encoding="UTF-8"?>
<svg width="240px" height="64px" viewBox="0 0 240 64" version="1.1" xmlns="http://www.w3.org/2000/svg" xmlns:xlink="http://www.w3.org/1999/xlink">
    <title>logo</title>
    <g id="Page-1" stroke="none" stroke-width="1" fill="none" fill-rule="evenodd">
        <g id="logo" transform="translate(2.000000, 0.000000)" fill-rule="nonzero">
            <path id="Service" fill="#2f2f41" d="M 20.55 3 L 21.7 3 A 240.268 240.268 0 0 1 21.651 3.889 Q 21.626 4.345 21.596 4.855 A 426.344 426.344 0 0 1 21.575 5.2 A 39.936 39.936 0 0 0 21.541 5.877 Q 21.5 6.815 21.481 8.097 A 134.875 134.875 0 0 0 21.475 8.525 A 264.366 264.366 0 0 0 21.464 9.645 Q 21.452 11.196 21.45 13.298 A 869.125 869.125 0 0 0 21.45 14 L 20.3 14 Q 20.15 11.45 19.175 9.1 A 10.625 10.625 0 0 0 17.574 6.399 A 9.524 9.524 0 0 0 16.425 5.225 A 6.218 6.218 0 0 0 13.37 3.821 A 8.605 8.605 0 0 0 11.9 3.7 A 6.806 6.806 0 0 0 9.914 3.978 A 5.503 5.503 0 0 0 7.825 5.15 A 4.781 4.781 0 0 0 6.241 8.3 A 6.728 6.728 0 0 0 6.2 9.05 A 6.955 6.955 0 0 0 6.387 10.702 A 5.199 5.199 0 0 0 7.25 12.575 A 9.83 9.83 0 0 0 8.404 13.868 Q 9.187 14.611 10.225 15.325 Q 11.548 16.236 13.215 17.324 A 230.965 230.965 0 0 0 14.8 18.35 Q 17.25 19.95 19.2 21.525 A 14.161 14.161 0 0 1 21.179 23.455 A 11.73 11.73 0 0 1 22.275 25 Q 23.369 26.848 23.399 29.5 A 13.274 13.274 0 0 1 23.4 29.65 A 10.873 10.873 0 0 1 23.136 32.109 A 7.822 7.822 0 0 1 21.8 35.05 Q 20.2 37.2 17.5 38.25 A 15.6 15.6 0 0 1 12.976 39.25 A 18.564 18.564 0 0 1 11.6 39.3 Q 8.717 39.3 7.004 38.727 A 7.006 7.006 0 0 1 6.925 38.7 A 27.994 27.994 0 0 1 5.507 38.166 Q 4.866 37.903 4.311 37.632 A 15.986 15.986 0 0 1 3.95 37.45 A 8.317 8.317 0 0 0 3.431 37.144 Q 2.926 36.872 2.554 36.788 A 1.387 1.387 0 0 0 2.25 36.75 A 0.63 0.63 0 0 0 1.759 37.01 Q 1.398 37.445 1.202 38.606 A 11.048 11.048 0 0 0 1.15 38.95 L 0 38.95 A 29.312 29.312 0 0 0 0.064 38.031 Q 0.109 37.219 0.125 36.25 Q 0.147 34.864 0.17 32.737 A 1235.262 1235.262 0 0 0 0.175 32.225 A 387.314 387.314 0 0 0 0.186 30.905 Q 0.199 28.94 0.2 26.325 A 1125.545 1125.545 0 0 0 0.2 25.95 L 1.35 25.95 A 24.385 24.385 0 0 0 2.012 30.331 A 21.397 21.397 0 0 0 2.475 31.925 Q 3.4 34.7 5.325 36.4 A 6.567 6.567 0 0 0 8.229 37.861 Q 9.25 38.1 10.45 38.1 A 7.642 7.642 0 0 0 12.828 37.743 A 6.551 6.551 0 0 0 14.9 36.625 A 4.707 4.707 0 0 0 16.531 34.032 Q 16.736 33.235 16.749 32.278 A 9.571 9.571 0 0 0 16.75 32.15 Q 16.75 29.1 14.65 27.05 A 24.262 24.262 0 0 0 12.647 25.312 Q 11.594 24.488 10.336 23.657 A 46.138 46.138 0 0 0 9.15 22.9 Q 6.8 21.4 4.75 19.85 A 13.801 13.801 0 0 1 2.438 17.661 A 11.974 11.974 0 0 1 1.475 16.325 A 7.99 7.99 0 0 1 0.422 13.534 A 10.932 10.932 0 0 1 0.25 11.55 A 10.497 10.497 0 0 1 0.47 9.342 Q 0.824 7.694 1.75 6.475 Q 3.25 4.5 5.675 3.55 A 14.038 14.038 0 0 1 10.764 2.6 A 15.873 15.873 0 0 1 10.85 2.6 A 21.11 21.11 0 0 1 12.398 2.653 Q 13.916 2.765 14.92 3.114 A 5.372 5.372 0 0 1 15.15 3.2 A 18.569 18.569 0 0 1 16.509 3.805 Q 17.183 4.139 17.75 4.5 Q 18.323 4.834 18.69 5.009 A 5.646 5.646 0 0 0 18.725 5.025 A 1.966 1.966 0 0 0 19.088 5.155 A 1.517 1.517 0 0 0 19.45 5.2 A 0.63 0.63 0 0 0 19.941 4.94 Q 20.302 4.506 20.498 3.344 A 11.048 11.048 0 0 0 20.55 3 Z M 48.9 23.15 L 32.05 23.15 L 32 22.2 L 43.1 22.2 Q 43.173 20.424 42.982 18.845 A 16.794 16.794 0 0 0 42.8 17.675 Q 42.488 16.057 41.887 14.94 A 5.921 5.921 0 0 0 41.525 14.35 A 3.227 3.227 0 0 0 40.828 13.613 A 2.552 2.552 0 0 0 39.25 13.1 A 3.2 3.2 0 0 0 37.173 13.882 Q 36.704 14.268 36.277 14.845 A 7.734 7.734 0 0 0 35.95 15.325 Q 34.767 17.206 34.334 21.104 A 36.266 36.266 0 0 0 34.2 22.6 L 34.4 22.9 A 10.967 10.967 0 0 0 34.304 23.752 A 13.368 13.368 0 0 0 34.275 24.3 Q 34.25 25.05 34.25 25.8 Q 34.25 28.431 34.832 30.365 A 9.614 9.614 0 0 0 35.25 31.5 Q 36.108 33.432 37.409 34.479 A 5.617 5.617 0 0 0 37.85 34.8 Q 39.45 35.85 41.15 35.85 A 7.654 7.654 0 0 0 43.535 35.455 A 9.763 9.763 0 0 0 44.725 34.975 A 5.581 5.581 0 0 0 46.241 33.879 Q 46.802 33.321 47.314 32.559 A 12.624 12.624 0 0 0 47.95 31.5 L 48.9 31.9 A 10.84 10.84 0 0 1 47.937 34.064 A 13.845 13.845 0 0 1 47.075 35.375 A 9.924 9.924 0 0 1 44.047 38.06 A 11.461 11.461 0 0 1 43.8 38.2 Q 41.8 39.3 39.1 39.3 A 13.102 13.102 0 0 1 35.806 38.901 A 10.809 10.809 0 0 1 33.1 37.8 A 9.831 9.831 0 0 1 29.544 34.24 A 12.313 12.313 0 0 1 29.05 33.325 A 13.55 13.55 0 0 1 27.968 30.047 Q 27.6 28.217 27.6 26.05 A 22.564 22.564 0 0 1 27.833 22.717 Q 28.102 20.915 28.683 19.41 A 12.445 12.445 0 0 1 29.125 18.4 A 11.878 11.878 0 0 1 31.195 15.397 A 10.399 10.399 0 0 1 33.35 13.675 A 11.405 11.405 0 0 1 38.44 12.09 A 13.949 13.949 0 0 1 39.5 12.05 Q 43.9 12.05 46.4 14.7 Q 48.193 16.6 48.7 20.12 A 21.306 21.306 0 0 1 48.9 23.15 Z M 162.2 23.15 L 145.35 23.15 L 145.3 22.2 L 156.4 22.2 Q 156.473 20.424 156.282 18.845 A 16.794 16.794 0 0 0 156.1 17.675 Q 155.788 16.057 155.187 14.94 A 5.921 5.921 0 0 0 154.825 14.35 A 3.227 3.227 0 0 0 154.128 13.613 A 2.552 2.552 0 0 0 152.55 13.1 A 3.2 3.2 0 0 0 150.473 13.882 Q 150.004 14.268 149.577 14.845 A 7.734 7.734 0 0 0 149.25 15.325 Q 148.067 17.206 147.634 21.104 A 36.266 36.266 0 0 0 147.5 22.6 L 147.7 22.9 A 10.967 10.967 0 0 0 147.604 23.752 A 13.368 13.368 0 0 0 147.575 24.3 Q 147.55 25.05 147.55 25.8 Q 147.55 28.431 148.132 30.365 A 9.614 9.614 0 0 0 148.55 31.5 Q 149.408 33.432 150.709 34.479 A 5.617 5.617 0 0 0 151.15 34.8 Q 152.75 35.85 154.45 35.85 A 7.654 7.654 0 0 0 156.835 35.455 A 9.763 9.763 0 0 0 158.025 34.975 A 5.581 5.581 0 0 0 159.541 33.879 Q 160.102 33.321 160.614 32.559 A 12.624 12.624 0 0 0 161.25 31.5 L 162.2 31.9 A 10.84 10.84 0 0 1 161.237 34.064 A 13.845 13.845 0 0 1 160.375 35.375 A 9.924 9.924 0 0 1 157.347 38.06 A 11.461 11.461 0 0 1 157.1 38.2 Q 155.1 39.3 152.4 39.3 A 13.102 13.102 0 0 1 149.106 38.901 A 10.809 10.809 0 0 1 146.4 37.8 A 9.831 9.831 0 0 1 142.844 34.24 A 12.313 12.313 0 0 1 142.35 33.325 A 13.55 13.55 0 0 1 141.268 30.047 Q 140.9 28.217 140.9 26.05 A 22.564 22.564 0 0 1 141.133 22.717 Q 141.402 20.915 141.983 19.41 A 12.445 12.445 0 0 1 142.425 18.4 A 11.878 11.878 0 0 1 144.495 15.397 A 10.399 10.399 0 0 1 146.65 13.675 A 11.405 11.405 0 0 1 151.74 12.09 A 13.949 13.949 0 0 1 152.8 12.05 Q 157.2 12.05 159.7 14.7 Q 161.493 16.6 162 20.12 A 21.306 21.306 0 0 1 162.2 23.15 Z M 98.8 12.75 L 98.8 13.8 A 3.095 3.095 0 0 0 97.689 14.285 A 4.328 4.328 0 0 0 97.025 14.85 A 4.073 4.073 0 0 0 96.542 15.469 Q 96.103 16.145 95.687 17.209 A 18.311 18.311 0 0 0 95.45 17.85 L 87.8 38.75 Q 87.2 38.7 86.6 38.7 Q 86 38.7 85.35 38.75 L 76.35 16.6 A 11.368 11.368 0 0 0 75.996 15.789 Q 75.616 15.012 75.224 14.594 A 1.808 1.808 0 0 0 74.8 14.25 A 5.024 5.024 0 0 0 74.347 14.023 Q 73.873 13.816 73.505 13.801 A 1.391 1.391 0 0 0 73.45 13.8 L 73.45 12.75 A 134.489 134.489 0 0 0 75.977 12.906 A 148.663 148.663 0 0 0 76.35 12.925 Q 77.85 13 79.65 13 A 71.826 71.826 0 0 0 81.864 12.965 A 84.349 84.349 0 0 0 82.925 12.925 A 155.413 155.413 0 0 0 84.594 12.844 A 126.288 126.288 0 0 0 86.15 12.75 L 86.15 13.8 A 13.873 13.873 0 0 0 85.137 13.835 Q 84.642 13.872 84.203 13.945 A 8.552 8.552 0 0 0 84.175 13.95 A 2.2 2.2 0 0 0 83.706 14.081 Q 83.404 14.206 83.208 14.418 A 1.238 1.238 0 0 0 83 14.725 A 1.019 1.019 0 0 0 82.919 14.983 Q 82.812 15.566 83.164 16.648 A 10.062 10.062 0 0 0 83.25 16.9 L 89.25 32.45 L 88.8 33 L 93.35 20.65 A 16.783 16.783 0 0 0 93.736 19.435 Q 94.437 16.869 93.731 15.562 A 2.404 2.404 0 0 0 93.725 15.55 A 3.067 3.067 0 0 0 92.113 14.161 Q 91.576 13.946 90.9 13.853 A 7.312 7.312 0 0 0 90.35 13.8 L 90.35 12.75 Q 91.55 12.85 92.75 12.9 A 58.467 58.467 0 0 0 94.191 12.943 A 47.738 47.738 0 0 0 95 12.95 Q 96.05 12.95 97.075 12.9 Q 97.78 12.866 98.331 12.808 A 12.811 12.811 0 0 0 98.8 12.75 Z M 136.45 31.4 L 137.4 31.75 Q 136.85 33.5 135.625 35.25 A 9.996 9.996 0 0 1 132.586 38.069 A 11.496 11.496 0 0 1 132.45 38.15 Q 130.527 39.284 127.776 39.3 A 13.56 13.56 0 0 1 127.7 39.3 A 11.963 11.963 0 0 1 123.627 38.619 A 11.088 11.088 0 0 1 121.9 37.825 Q 119.3 36.35 117.775 33.35 A 13.094 13.094 0 0 1 116.68 30.219 Q 116.25 28.264 116.25 25.9 A 20.867 20.867 0 0 1 116.506 22.544 Q 116.88 20.251 117.8 18.425 A 11.674 11.674 0 0 1 120.325 15.036 A 10.874 10.874 0 0 1 122.125 13.7 A 11.846 11.846 0 0 1 127.908 12.057 A 14.162 14.162 0 0 1 128.35 12.05 A 14.143 14.143 0 0 1 130.503 12.208 A 11.733 11.733 0 0 1 131.775 12.475 A 10.789 10.789 0 0 1 133.286 13 A 8.306 8.306 0 0 1 134.5 13.65 A 5.986 5.986 0 0 1 136.018 14.985 A 5.587 5.587 0 0 1 136.4 15.525 Q 137.1 16.65 137.1 18 A 4.413 4.413 0 0 1 136.95 19.179 A 3.278 3.278 0 0 1 136.1 20.65 A 3.374 3.374 0 0 1 133.696 21.649 A 4.428 4.428 0 0 1 133.6 21.65 A 4.355 4.355 0 0 1 132.456 21.507 A 3.265 3.265 0 0 1 131.075 20.75 A 2.983 2.983 0 0 1 130.129 18.848 A 4.179 4.179 0 0 1 130.1 18.35 A 4.066 4.066 0 0 1 130.251 17.216 A 3.213 3.213 0 0 1 130.95 15.95 Q 131.8 15 133 14.7 A 2.663 2.663 0 0 0 132.425 14.106 Q 132.075 13.838 131.6 13.625 A 4.911 4.911 0 0 0 129.994 13.221 A 5.892 5.892 0 0 0 129.5 13.2 Q 128 13.2 126.8 13.975 A 5.697 5.697 0 0 0 125.553 15.084 A 7.917 7.917 0 0 0 124.725 16.275 Q 123.937 17.648 123.474 19.589 A 18.52 18.52 0 0 0 123.375 20.025 Q 122.9 22.25 122.9 25.15 A 27.498 27.498 0 0 0 122.995 27.515 Q 123.097 28.687 123.306 29.67 A 10.768 10.768 0 0 0 123.875 31.55 A 9.917 9.917 0 0 0 124.609 32.996 Q 125.067 33.731 125.612 34.255 A 4.904 4.904 0 0 0 126.4 34.875 Q 127.95 35.85 129.7 35.85 A 6.363 6.363 0 0 0 131.177 35.665 Q 131.848 35.505 132.574 35.206 A 12.335 12.335 0 0 0 133.15 34.95 A 5.738 5.738 0 0 0 134.769 33.775 Q 135.341 33.197 135.855 32.413 A 12.463 12.463 0 0 0 136.45 31.4 Z M 61.85 21.1 L 61.85 33.45 Q 61.85 35.9 63.1 36.725 A 4.243 4.243 0 0 0 64.199 37.228 Q 64.741 37.394 65.402 37.475 A 11.188 11.188 0 0 0 66.75 37.55 L 66.75 38.6 A 185.595 185.595 0 0 0 66.111 38.574 Q 65.386 38.545 64.388 38.509 A 771.924 771.924 0 0 0 63.425 38.475 A 127.709 127.709 0 0 0 60.064 38.405 A 143.19 143.19 0 0 0 58.9 38.4 Q 56.95 38.4 55.025 38.475 A 469.516 469.516 0 0 0 54.123 38.511 Q 52.863 38.563 52.15 38.6 L 52.15 37.55 A 7.205 7.205 0 0 0 53.057 37.497 Q 54.206 37.351 54.775 36.8 A 1.985 1.985 0 0 0 55.208 36.144 Q 55.55 35.345 55.55 33.95 L 55.55 18.2 Q 55.55 15.95 54.825 14.875 Q 54.1 13.8 52.15 13.8 L 52.15 12.75 A 33.657 33.657 0 0 0 54.873 12.898 A 30.38 30.38 0 0 0 55.25 12.9 A 35.19 35.19 0 0 0 57.913 12.803 A 30.57 30.57 0 0 0 58.775 12.725 A 24.607 24.607 0 0 0 60.572 12.473 A 19.507 19.507 0 0 0 61.85 12.2 L 61.85 17.4 Q 62.45 16 63.425 14.8 Q 64.4 13.6 65.775 12.825 Q 67.15 12.05 68.75 12.05 A 6.097 6.097 0 0 1 69.881 12.149 Q 70.547 12.275 71.084 12.56 A 3.607 3.607 0 0 1 71.325 12.7 A 4.366 4.366 0 0 1 72.374 13.616 A 3.914 3.914 0 0 1 72.85 14.35 Q 73.35 15.35 73.35 16.45 A 4.601 4.601 0 0 1 73.163 17.789 A 3.734 3.734 0 0 1 72.375 19.2 A 3.211 3.211 0 0 1 70.095 20.291 A 4.412 4.412 0 0 1 69.8 20.3 A 4.598 4.598 0 0 1 68.712 20.178 A 3.286 3.286 0 0 1 67.35 19.5 A 2.619 2.619 0 0 1 66.423 17.723 A 3.744 3.744 0 0 1 66.4 17.3 A 4.144 4.144 0 0 1 66.511 16.317 A 3.105 3.105 0 0 1 67.025 15.2 A 5.561 5.561 0 0 1 67.852 14.294 A 4.728 4.728 0 0 1 68.45 13.85 A 1.861 1.861 0 0 0 67.572 13.625 Q 67.412 13.623 67.244 13.644 A 2.631 2.631 0 0 0 67.2 13.65 A 4.369 4.369 0 0 0 64.523 14.904 A 5.546 5.546 0 0 0 64.4 15.025 A 8.786 8.786 0 0 0 62.526 17.924 L 62.525 17.925 A 9.903 9.903 0 0 0 62.029 19.507 A 7.444 7.444 0 0 0 61.85 21.1 Z M 109.85 12.2 L 109.85 33.95 A 8.894 8.894 0 0 0 109.898 34.909 Q 110.003 35.879 110.343 36.441 A 1.768 1.768 0 0 0 110.625 36.8 A 2.216 2.216 0 0 0 111.357 37.257 Q 112.02 37.521 113.024 37.547 A 8.642 8.642 0 0 0 113.25 37.55 L 113.25 38.6 A 84.638 84.638 0 0 0 112.741 38.574 Q 111.888 38.531 110.5 38.475 Q 108.65 38.4 106.75 38.4 Q 104.9 38.4 103 38.475 A 476.505 476.505 0 0 0 102.109 38.511 Q 100.863 38.563 100.15 38.6 L 100.15 37.55 A 7.205 7.205 0 0 0 101.057 37.497 Q 102.206 37.351 102.775 36.8 A 1.985 1.985 0 0 0 103.208 36.144 Q 103.55 35.345 103.55 33.95 L 103.55 18.25 A 11.602 11.602 0 0 0 103.493 17.061 Q 103.348 15.65 102.825 14.875 Q 102.1 13.8 100.15 13.8 L 100.15 12.75 A 33.657 33.657 0 0 0 102.873 12.898 A 30.38 30.38 0 0 0 103.25 12.9 A 35.19 35.19 0 0 0 105.913 12.803 A 30.57 30.57 0 0 0 106.775 12.725 A 24.607 24.607 0 0 0 108.572 12.473 A 19.507 19.507 0 0 0 109.85 12.2 Z M 107.681 0.159 A 5.307 5.307 0 0 0 106.35 0 A 5.585 5.585 0 0 0 105.364 0.084 A 4.006 4.006 0 0 0 103.4 1 A 3.214 3.214 0 0 0 102.447 2.395 A 3.828 3.828 0 0 0 102.25 3.65 A 4.524 4.524 0 0 0 102.257 3.906 A 3.286 3.286 0 0 0 103.4 6.3 A 3.927 3.927 0 0 0 105.019 7.141 A 5.307 5.307 0 0 0 106.35 7.3 A 5.585 5.585 0 0 0 107.336 7.217 A 4.006 4.006 0 0 0 109.3 6.3 A 3.214 3.214 0 0 0 110.253 4.905 A 3.828 3.828 0 0 0 110.45 3.65 A 4.524 4.524 0 0 0 110.443 3.395 A 3.286 3.286 0 0 0 109.3 1 A 3.927 3.927 0 0 0 107.681 0.159 Z"></path>
            <path id="Engineer" fill="#E5261F" d="M141.16,52.672 C143.304,52.672 145.272,52.328 147.064,51.64 C148.856,50.952 150.304,49.92 151.408,48.544 C152.512,47.168 153.064,45.424 153.064,43.312 C153.064,41.584 152.696,40.096 151.96,38.848 C151.224,37.6 150.248,36.48 149.032,35.488 C147.816,34.496 146.44,33.504 144.904,32.512 C143.144,31.296 141.648,30.256 140.416,29.392 C139.184,28.528 138.248,27.64 137.608,26.728 C136.968,25.816 136.648,24.72 136.648,23.44 C136.648,21.904 137.144,20.704 138.136,19.84 C139.128,18.976 140.392,18.544 141.928,18.544 C143.624,18.544 145.056,19.048 146.224,20.056 C147.392,21.064 148.296,22.352 148.936,23.92 C149.576,25.488 149.96,27.104 150.088,28.768 L150.088,28.768 L151.192,28.768 C151.192,26.528 151.2,24.72 151.216,23.344 C151.232,21.968 151.264,20.856 151.312,20.008 C151.36,19.16 151.4,18.432 151.432,17.824 L151.432,17.824 L150.328,17.824 C150.136,19.232 149.784,19.936 149.272,19.936 C149.048,19.936 148.816,19.88 148.576,19.768 C148.336,19.656 148.024,19.488 147.64,19.264 C146.904,18.816 146.024,18.392 145,17.992 C143.976,17.592 142.52,17.392 140.632,17.392 C138.776,17.392 137.024,17.704 135.376,18.328 C133.728,18.952 132.4,19.912 131.392,21.208 C130.384,22.504 129.88,24.16 129.88,26.176 C129.88,27.936 130.272,29.456 131.056,30.736 C131.84,32.016 132.888,33.152 134.2,34.144 C135.512,35.136 136.92,36.128 138.424,37.12 C140.536,38.496 142.264,39.832 143.608,41.128 C144.952,42.424 145.624,44.064 145.624,46.048 C145.624,47.84 145.048,49.184 143.896,50.08 C142.744,50.976 141.336,51.424 139.672,51.424 C137.624,51.424 135.984,50.864 134.752,49.744 C133.52,48.624 132.608,47.144 132.016,45.304 C131.424,43.464 131.064,41.488 130.936,39.376 L130.936,39.376 L129.832,39.376 C129.832,41.904 129.824,43.992 129.808,45.64 C129.792,47.288 129.776,48.624 129.76,49.648 C129.744,50.672 129.704,51.568 129.64,52.336 L129.64,52.336 L130.744,52.336 C130.936,50.928 131.288,50.224 131.8,50.224 C132.184,50.224 132.728,50.448 133.432,50.896 C134.232,51.312 135.224,51.712 136.408,52.096 C137.592,52.48 139.176,52.672 141.16,52.672 Z M167.886314,52.672 C169.678314,52.672 171.214314,52.304 172.494314,51.568 C173.774314,50.832 174.830314,49.888 175.662314,48.736 C176.494314,47.584 177.102314,46.4 177.486314,45.184 L177.486314,45.184 L176.622314,44.896 C175.630314,46.496 174.566314,47.536 173.430314,48.016 C172.294314,48.496 171.246314,48.736 170.286314,48.736 C169.294314,48.736 168.318314,48.424 167.358314,47.8 C166.398314,47.176 165.606314,46.176 164.982314,44.8 C164.358314,43.424 164.046314,41.632 164.046314,39.424 C164.046314,38.976 164.054314,38.544 164.070314,38.128 C164.086314,37.712 164.110314,37.312 164.142314,36.928 L164.124,37.168 L177.582314,37.168 C177.582314,33.5318519 176.840476,30.87493 175.3568,29.1972346 L175.182314,29.008 C173.582314,27.344 171.374314,26.512 168.558314,26.512 C166.286314,26.512 164.262314,27 162.486314,27.976 C160.710314,28.952 159.318314,30.432 158.310314,32.416 C157.302314,34.4 156.798314,36.88 156.798314,39.856 C156.798314,42.768 157.270314,45.168 158.214314,47.056 C159.158314,48.944 160.462314,50.352 162.126314,51.28 C163.790314,52.208 165.710314,52.672 167.886314,52.672 Z M164.020953,36.2195236 C164.199948,33.1746238 164.664401,30.9787826 165.414314,29.632 C166.198314,28.224 167.150314,27.52 168.270314,27.52 C169.070314,27.52 169.710314,27.92 170.190314,28.72 C170.670314,29.52 171.022314,30.584 171.246314,31.912 C171.470314,33.24 171.566314,34.688 171.534314,36.256 L171.534314,36.256 L164.018,36.256 L164.020953,36.2195236 Z M194.871918,52 L194.871918,50.992 C193.367918,50.992 192.239918,50.72 191.487918,50.176 C190.735918,49.632 190.359918,48.592 190.359918,47.056 L190.359918,47.056 L190.359918,34.336 C190.359918,33.472 190.551918,32.592 190.935918,31.696 C191.319918,30.8 191.839918,30.024 192.495918,29.368 C193.151918,28.712 193.895918,28.32 194.727918,28.192 C195.175918,28.032 195.623918,28.016 196.071918,28.144 C195.463918,28.56 194.959918,29.064 194.559918,29.656 C194.159918,30.248 193.959918,30.992 193.959918,31.888 C193.959918,32.816 194.271918,33.56 194.895918,34.12 C195.519918,34.68 196.391918,34.96 197.511918,34.96 C198.631918,34.96 199.535918,34.584 200.223918,33.832 C200.911918,33.08 201.255918,32.112 201.255918,30.928 C201.255918,30.192 201.103918,29.488 200.799918,28.816 C200.495918,28.144 200.023918,27.592 199.383918,27.16 C198.743918,26.728 197.911918,26.512 196.887918,26.512 C195.863918,26.512 194.935918,26.712 194.103918,27.112 C193.271918,27.512 192.535918,28.064 191.895918,28.768 C191.255918,29.472 190.743918,30.256 190.359918,31.12 L190.359918,31.12 L190.359918,26.656 C189.367918,26.88 188.287918,27.048 187.119918,27.16 C185.951918,27.272 184.695918,27.328 183.351918,27.328 C182.391918,27.328 181.399918,27.28 180.375918,27.184 L180.375918,27.184 L180.375918,28.192 C181.559918,28.192 182.367918,28.536 182.799918,29.224 C183.231918,29.912 183.447918,30.976 183.447918,32.416 L183.447918,32.416 L183.447918,47.536 C183.447918,48.88 183.215918,49.792 182.751918,50.272 C182.287918,50.752 181.495918,50.992 180.375918,50.992 L180.375918,50.992 L180.375918,52 C181.047918,51.968 182.039918,51.928 183.351918,51.88 C184.663918,51.832 185.959918,51.808 187.239918,51.808 C188.775918,51.808 190.247918,51.832 191.655918,51.88 C193.063918,51.928 194.135918,51.968 194.871918,52 L194.871918,52 Z M209.012676,22.192 C210.356676,22.192 211.420676,21.864 212.204676,21.208 C212.988676,20.552 213.380676,19.648 213.380676,18.496 C213.380676,17.344 212.988676,16.44 212.204676,15.784 C211.420676,15.128 210.356676,14.8 209.012676,14.8 C207.668676,14.8 206.604676,15.128 205.820676,15.784 C205.036676,16.44 204.644676,17.344 204.644676,18.496 C204.644676,19.648 205.036676,20.552 205.820676,21.208 C206.604676,21.864 207.668676,22.192 209.012676,22.192 Z M215.828676,52 L215.828676,50.992 C214.708676,50.992 213.916676,50.752 213.452676,50.272 C212.988676,49.792 212.756676,48.88 212.756676,47.536 L212.756676,47.536 L212.756676,26.656 C211.764676,26.88 210.684676,27.048 209.516676,27.16 C208.348676,27.272 207.092676,27.328 205.748676,27.328 C204.788676,27.328 203.796676,27.28 202.772676,27.184 L202.772676,27.184 L202.772676,28.192 C203.956676,28.192 204.764676,28.536 205.196676,29.224 C205.628676,29.912 205.844676,30.976 205.844676,32.416 L205.844676,32.416 L205.844676,47.536 C205.844676,48.88 205.612676,49.792 205.148676,50.272 C204.684676,50.752 203.892676,50.992 202.772676,50.992 L202.772676,50.992 L202.772676,52 C203.412676,51.968 204.372676,51.928 205.652676,51.88 C206.932676,51.832 208.196676,51.808 209.444676,51.808 C210.692676,51.808 211.924676,51.832 213.140676,51.88 C214.356676,51.928 215.252676,51.968 215.828676,52 L215.828676,52 Z M232.398232,52 L232.398232,50.992 C230.990232,50.992 229.886232,50.728 229.086232,50.2 C228.286232,49.672 227.886232,48.624 227.886232,47.056 L227.886232,47.056 L227.886232,28.192 L233.022232,28.192 L233.022232,27.232 L227.886232,27.232 L227.886232,22.864 C227.886232,20.976 227.950232,19.576 228.078232,18.664 C228.206232,17.752 228.446232,17.056 228.798232,16.576 C229.054232,16.192 229.390232,15.888 229.806232,15.664 C230.222232,15.44 230.750232,15.328 231.390232,15.328 C231.870232,15.328 232.254232,15.392 232.542232,15.52 C232.830232,15.648 233.022232,15.808 233.118232,16 C232.190232,16.256 231.486232,16.704 231.006232,17.344 C230.526232,17.984 230.286232,18.72 230.286232,19.552 C230.286232,20.608 230.630232,21.44 231.318232,22.048 C232.006232,22.656 232.878232,22.96 233.934232,22.96 C234.958232,22.96 235.782232,22.624 236.406232,21.952 C237.030232,21.28 237.342232,20.512 237.342232,19.648 C237.342232,18.848 237.182232,18.136 236.862232,17.512 C236.542232,16.888 236.158232,16.4 235.710232,16.048 C235.070232,15.568 234.334232,15.184 233.502232,14.896 C232.670232,14.608 231.694232,14.464 230.574232,14.464 C229.230232,14.464 227.974232,14.696 226.806232,15.16 C225.638232,15.624 224.702232,16.192 223.998232,16.864 C222.878232,17.952 222.094232,19.24 221.646232,20.728 C221.198232,22.216 220.974232,24.384 220.974232,27.232 L220.974232,27.232 L217.710232,27.232 L217.710232,28.192 L220.974232,28.192 L220.974232,47.536 C220.974232,48.88 220.742232,49.792 220.278232,50.272 C219.814232,50.752 219.022232,50.992 217.902232,50.992 L217.902232,50.992 L217.902232,52 C218.510232,51.968 219.398232,51.928 220.566232,51.88 C221.734232,51.832 222.926232,51.808 224.142232,51.808 C225.806232,51.808 227.390232,51.832 228.894232,51.88 C230.398232,51.928 231.566232,51.968 232.398232,52 L232.398232,52 Z"></path>
        </g>
    </g>
</svg>
