<?xml version="1.0" encoding="UTF-8"?>
<svg width="240px" height="64px" viewBox="0 0 240 64" version="1.1" xmlns="http://www.w3.org/2000/svg" xmlns:xlink="http://www.w3.org/1999/xlink">
    <title>logo</title>
    <g id="Page-1" stroke="none" stroke-width="1" fill="none" fill-rule="evenodd">
        <g id="logo" transform="translate(2.000000, 0.000000)" fill-rule="nonzero">
            <path id="Service" fill="#2f2f41" d="M 10.275 1.5 L 10.85 1.5 Q 10.829 1.908 10.798 2.427 A 213.208 213.208 0 0 1 10.788 2.6 Q 10.75 3.225 10.738 4.263 A 132.185 132.185 0 0 0 10.732 4.823 Q 10.726 5.598 10.725 6.649 A 435.182 435.182 0 0 0 10.725 7 L 10.15 7 Q 10.075 5.725 9.588 4.55 Q 9.1 3.375 8.213 2.613 A 3.109 3.109 0 0 0 6.685 1.91 A 4.302 4.302 0 0 0 5.95 1.85 A 3.403 3.403 0 0 0 4.957 1.989 A 2.751 2.751 0 0 0 3.912 2.575 A 2.391 2.391 0 0 0 3.12 4.15 A 3.364 3.364 0 0 0 3.1 4.525 A 3.477 3.477 0 0 0 3.193 5.351 A 2.6 2.6 0 0 0 3.625 6.288 A 4.915 4.915 0 0 0 4.202 6.934 Q 4.594 7.305 5.113 7.663 A 64.513 64.513 0 0 0 5.885 8.186 Q 6.229 8.415 6.607 8.662 A 115.488 115.488 0 0 0 7.4 9.175 A 29.882 29.882 0 0 1 8.699 10.071 A 23.676 23.676 0 0 1 9.6 10.763 A 7.08 7.08 0 0 1 10.589 11.727 A 5.865 5.865 0 0 1 11.138 12.5 A 3.89 3.89 0 0 1 11.592 13.703 Q 11.693 14.191 11.7 14.75 A 6.64 6.64 0 0 1 11.7 14.825 Q 11.7 16.45 10.9 17.525 Q 10.1 18.6 8.75 19.125 A 7.8 7.8 0 0 1 6.488 19.625 A 9.282 9.282 0 0 1 5.8 19.65 Q 4.325 19.65 3.463 19.35 A 13.997 13.997 0 0 1 2.753 19.083 Q 2.433 18.952 2.155 18.816 A 7.993 7.993 0 0 1 1.975 18.725 Q 1.425 18.375 1.125 18.375 A 0.315 0.315 0 0 0 0.88 18.505 Q 0.673 18.753 0.575 19.475 L 0 19.475 Q 0.038 19.035 0.055 18.477 A 26.914 26.914 0 0 0 0.062 18.125 Q 0.074 17.432 0.085 16.368 A 617.606 617.606 0 0 0 0.088 16.113 A 193.659 193.659 0 0 0 0.093 15.452 Q 0.1 14.47 0.1 13.163 A 566.411 566.411 0 0 0 0.1 12.975 L 0.675 12.975 A 12.192 12.192 0 0 0 1.006 15.165 A 10.698 10.698 0 0 0 1.238 15.963 Q 1.7 17.35 2.663 18.2 Q 3.614 19.04 5.188 19.05 A 5.978 5.978 0 0 0 5.225 19.05 A 3.821 3.821 0 0 0 6.414 18.871 A 3.276 3.276 0 0 0 7.45 18.313 A 2.354 2.354 0 0 0 8.266 17.016 Q 8.368 16.617 8.375 16.139 A 4.788 4.788 0 0 0 8.375 16.075 Q 8.375 14.55 7.325 13.525 A 12.131 12.131 0 0 0 6.323 12.656 Q 5.797 12.244 5.168 11.829 A 23.069 23.069 0 0 0 4.575 11.45 A 34.847 34.847 0 0 1 2.897 10.311 A 30.84 30.84 0 0 1 2.375 9.925 A 6.901 6.901 0 0 1 1.219 8.831 A 5.987 5.987 0 0 1 0.738 8.163 A 3.995 3.995 0 0 1 0.211 6.767 A 5.466 5.466 0 0 1 0.125 5.775 Q 0.125 4.225 0.875 3.238 Q 1.625 2.25 2.838 1.775 Q 4.05 1.3 5.425 1.3 A 10.555 10.555 0 0 1 6.199 1.327 Q 7.048 1.389 7.575 1.6 A 9.284 9.284 0 0 1 8.255 1.902 Q 8.591 2.07 8.875 2.25 A 10.475 10.475 0 0 0 9.052 2.351 Q 9.222 2.446 9.345 2.504 A 2.823 2.823 0 0 0 9.362 2.513 Q 9.55 2.6 9.725 2.6 A 0.315 0.315 0 0 0 9.97 2.47 Q 10.177 2.222 10.275 1.5 Z M 24.45 11.575 L 16.025 11.575 L 16 11.1 L 21.55 11.1 Q 21.6 9.875 21.4 8.838 A 5.917 5.917 0 0 0 21.217 8.119 Q 21.036 7.566 20.763 7.175 A 1.613 1.613 0 0 0 20.414 6.807 A 1.276 1.276 0 0 0 19.625 6.55 Q 18.784 6.55 18.139 7.422 A 3.867 3.867 0 0 0 17.975 7.663 Q 17.383 8.603 17.167 10.552 A 18.133 18.133 0 0 0 17.1 11.3 L 17.2 11.45 A 5.484 5.484 0 0 0 17.152 11.876 A 6.684 6.684 0 0 0 17.138 12.15 Q 17.125 12.525 17.125 12.9 A 9.811 9.811 0 0 0 17.192 14.086 Q 17.265 14.681 17.416 15.182 A 4.807 4.807 0 0 0 17.625 15.75 A 4.842 4.842 0 0 0 18.042 16.509 Q 18.338 16.945 18.704 17.239 A 2.808 2.808 0 0 0 18.925 17.4 A 3.312 3.312 0 0 0 19.738 17.794 A 2.747 2.747 0 0 0 20.575 17.925 A 3.827 3.827 0 0 0 21.768 17.728 A 4.881 4.881 0 0 0 22.362 17.488 Q 23.275 17.05 23.975 15.75 L 24.45 15.95 A 5.42 5.42 0 0 1 23.969 17.032 A 6.923 6.923 0 0 1 23.537 17.688 A 4.962 4.962 0 0 1 22.024 19.03 A 5.73 5.73 0 0 1 21.9 19.1 A 4.381 4.381 0 0 1 20.475 19.579 A 5.801 5.801 0 0 1 19.55 19.65 A 6.551 6.551 0 0 1 17.903 19.451 A 5.405 5.405 0 0 1 16.55 18.9 A 4.916 4.916 0 0 1 14.772 17.12 A 6.156 6.156 0 0 1 14.525 16.663 A 6.775 6.775 0 0 1 13.984 15.024 Q 13.835 14.28 13.806 13.425 A 12.208 12.208 0 0 1 13.8 13.025 A 11.282 11.282 0 0 1 13.916 11.358 Q 14.051 10.458 14.342 9.705 A 6.222 6.222 0 0 1 14.562 9.2 A 5.939 5.939 0 0 1 15.598 7.699 A 5.199 5.199 0 0 1 16.675 6.838 A 5.702 5.702 0 0 1 19.22 6.045 A 6.974 6.974 0 0 1 19.75 6.025 A 5.872 5.872 0 0 1 21.205 6.195 A 4.06 4.06 0 0 1 23.2 7.35 Q 24.096 8.3 24.35 10.06 A 10.653 10.653 0 0 1 24.45 11.575 Z M 81 11.575 L 72.575 11.575 L 72.55 11.1 L 78.1 11.1 Q 78.15 9.875 77.95 8.838 A 5.917 5.917 0 0 0 77.767 8.119 Q 77.586 7.566 77.313 7.175 A 1.613 1.613 0 0 0 76.964 6.807 A 1.276 1.276 0 0 0 76.175 6.55 Q 75.334 6.55 74.689 7.422 A 3.867 3.867 0 0 0 74.525 7.663 Q 73.933 8.603 73.717 10.552 A 18.133 18.133 0 0 0 73.65 11.3 L 73.75 11.45 A 5.484 5.484 0 0 0 73.702 11.876 A 6.684 6.684 0 0 0 73.688 12.15 Q 73.675 12.525 73.675 12.9 A 9.811 9.811 0 0 0 73.742 14.086 Q 73.815 14.681 73.966 15.182 A 4.807 4.807 0 0 0 74.175 15.75 A 4.842 4.842 0 0 0 74.592 16.509 Q 74.888 16.945 75.254 17.239 A 2.808 2.808 0 0 0 75.475 17.4 A 3.312 3.312 0 0 0 76.288 17.794 A 2.747 2.747 0 0 0 77.125 17.925 A 3.827 3.827 0 0 0 78.318 17.728 A 4.881 4.881 0 0 0 78.912 17.488 Q 79.825 17.05 80.525 15.75 L 81 15.95 A 5.42 5.42 0 0 1 80.519 17.032 A 6.923 6.923 0 0 1 80.087 17.688 A 4.962 4.962 0 0 1 78.574 19.03 A 5.73 5.73 0 0 1 78.45 19.1 A 4.381 4.381 0 0 1 77.025 19.579 A 5.801 5.801 0 0 1 76.1 19.65 A 6.551 6.551 0 0 1 74.453 19.451 A 5.405 5.405 0 0 1 73.1 18.9 A 4.916 4.916 0 0 1 71.322 17.12 A 6.156 6.156 0 0 1 71.075 16.663 A 6.775 6.775 0 0 1 70.534 15.024 Q 70.385 14.28 70.356 13.425 A 12.208 12.208 0 0 1 70.35 13.025 A 11.282 11.282 0 0 1 70.466 11.358 Q 70.601 10.458 70.892 9.705 A 6.222 6.222 0 0 1 71.112 9.2 A 5.939 5.939 0 0 1 72.148 7.699 A 5.199 5.199 0 0 1 73.225 6.838 A 5.702 5.702 0 0 1 75.77 6.045 A 6.974 6.974 0 0 1 76.3 6.025 A 5.872 5.872 0 0 1 77.755 6.195 A 4.06 4.06 0 0 1 79.75 7.35 Q 80.646 8.3 80.9 10.06 A 10.653 10.653 0 0 1 81 11.575 Z M 49.3 6.375 L 49.3 6.9 A 1.547 1.547 0 0 0 48.744 7.143 A 2.164 2.164 0 0 0 48.412 7.425 Q 48.065 7.784 47.743 8.604 A 9.155 9.155 0 0 0 47.625 8.925 L 43.8 19.375 Q 43.5 19.35 43.2 19.35 A 7.907 7.907 0 0 0 42.736 19.364 A 8.955 8.955 0 0 0 42.575 19.375 L 38.075 8.3 A 5.684 5.684 0 0 0 37.898 7.895 Q 37.708 7.506 37.512 7.297 A 0.904 0.904 0 0 0 37.3 7.125 Q 36.92 6.911 36.652 6.901 A 0.696 0.696 0 0 0 36.625 6.9 L 36.625 6.375 A 67.243 67.243 0 0 0 37.888 6.453 A 74.394 74.394 0 0 0 38.075 6.463 Q 38.825 6.5 39.725 6.5 Q 40.5 6.5 41.363 6.463 Q 42.225 6.425 42.975 6.375 L 42.975 6.9 A 6.937 6.937 0 0 0 42.469 6.918 Q 42.221 6.936 42.002 6.973 A 4.241 4.241 0 0 0 41.987 6.975 A 1.1 1.1 0 0 0 41.753 7.041 Q 41.505 7.143 41.4 7.363 Q 41.25 7.675 41.525 8.45 L 44.525 16.225 L 44.3 16.5 L 46.575 10.325 A 8.391 8.391 0 0 0 46.768 9.717 Q 47.119 8.435 46.766 7.781 A 1.197 1.197 0 0 0 46.763 7.775 A 1.534 1.534 0 0 0 45.957 7.081 Q 45.688 6.973 45.35 6.927 A 3.656 3.656 0 0 0 45.075 6.9 L 45.075 6.375 Q 45.675 6.425 46.275 6.45 A 29.234 29.234 0 0 0 46.996 6.472 A 23.869 23.869 0 0 0 47.4 6.475 Q 47.925 6.475 48.438 6.45 A 13.338 13.338 0 0 0 48.799 6.428 Q 49.081 6.406 49.3 6.375 Z M 68.125 15.7 L 68.6 15.875 A 5.895 5.895 0 0 1 68.125 16.968 A 7.47 7.47 0 0 1 67.712 17.625 Q 67.1 18.5 66.125 19.075 A 4.004 4.004 0 0 1 64.894 19.54 Q 64.379 19.647 63.788 19.65 A 6.768 6.768 0 0 1 63.75 19.65 A 5.982 5.982 0 0 1 61.714 19.309 A 5.544 5.544 0 0 1 60.85 18.913 A 4.965 4.965 0 0 1 59.149 17.297 A 6.33 6.33 0 0 1 58.788 16.675 Q 58.025 15.175 58.025 12.95 A 10.434 10.434 0 0 1 58.153 11.272 Q 58.34 10.125 58.8 9.213 A 5.837 5.837 0 0 1 60.063 7.518 A 5.437 5.437 0 0 1 60.963 6.85 A 5.923 5.923 0 0 1 63.854 6.029 A 7.081 7.081 0 0 1 64.075 6.025 A 7.071 7.071 0 0 1 65.151 6.104 A 5.866 5.866 0 0 1 65.787 6.238 A 5.395 5.395 0 0 1 66.543 6.5 A 4.153 4.153 0 0 1 67.15 6.825 A 2.993 2.993 0 0 1 67.909 7.493 A 2.794 2.794 0 0 1 68.1 7.763 Q 68.45 8.325 68.45 9 A 2.206 2.206 0 0 1 68.375 9.59 A 1.639 1.639 0 0 1 67.95 10.325 A 1.687 1.687 0 0 1 66.748 10.825 A 2.215 2.215 0 0 1 66.7 10.825 Q 65.925 10.825 65.438 10.375 A 1.491 1.491 0 0 1 64.964 9.424 A 2.09 2.09 0 0 1 64.95 9.175 A 2.033 2.033 0 0 1 65.026 8.608 A 1.606 1.606 0 0 1 65.375 7.975 Q 65.8 7.5 66.4 7.35 Q 66.2 7.061 65.801 6.86 A 2.497 2.497 0 0 0 65.7 6.813 A 2.455 2.455 0 0 0 64.897 6.61 A 2.946 2.946 0 0 0 64.65 6.6 Q 63.9 6.6 63.3 6.988 A 2.849 2.849 0 0 0 62.676 7.542 A 3.958 3.958 0 0 0 62.263 8.138 A 5.277 5.277 0 0 0 61.896 8.929 Q 61.748 9.329 61.637 9.794 A 9.26 9.26 0 0 0 61.587 10.013 Q 61.368 11.042 61.351 12.36 A 17.247 17.247 0 0 0 61.35 12.575 A 13.749 13.749 0 0 0 61.398 13.758 Q 61.448 14.344 61.553 14.835 A 5.384 5.384 0 0 0 61.838 15.775 Q 62.195 16.636 62.706 17.128 A 2.452 2.452 0 0 0 63.1 17.438 Q 63.875 17.925 64.75 17.925 Q 65.525 17.925 66.475 17.475 Q 67.23 17.117 67.827 16.207 A 6.232 6.232 0 0 0 68.125 15.7 Z M 30.825 10.55 L 30.825 16.725 A 3.729 3.729 0 0 0 30.864 17.287 Q 30.972 17.991 31.376 18.309 A 1.09 1.09 0 0 0 31.45 18.363 Q 32.075 18.775 33.275 18.775 L 33.275 19.3 A 92.794 92.794 0 0 0 32.955 19.287 Q 32.428 19.266 31.613 19.238 A 63.854 63.854 0 0 0 29.932 19.202 A 71.601 71.601 0 0 0 29.35 19.2 Q 28.375 19.2 27.412 19.238 A 234.765 234.765 0 0 0 26.962 19.256 Q 26.331 19.281 25.975 19.3 L 25.975 18.775 A 3.602 3.602 0 0 0 26.428 18.749 Q 27.003 18.675 27.287 18.4 Q 27.618 18.081 27.667 17.271 A 4.921 4.921 0 0 0 27.675 16.975 L 27.675 9.1 A 5.57 5.57 0 0 0 27.646 8.514 Q 27.573 7.824 27.313 7.438 Q 27.022 7.008 26.34 6.922 A 2.927 2.927 0 0 0 25.975 6.9 L 25.975 6.375 A 16.828 16.828 0 0 0 27.337 6.449 A 15.188 15.188 0 0 0 27.525 6.45 A 17.595 17.595 0 0 0 28.857 6.401 A 15.285 15.285 0 0 0 29.288 6.363 A 12.303 12.303 0 0 0 30.186 6.236 A 9.753 9.753 0 0 0 30.825 6.1 L 30.825 8.7 Q 31.125 8 31.613 7.4 Q 32.1 6.8 32.788 6.413 Q 33.475 6.025 34.275 6.025 A 3.049 3.049 0 0 1 34.84 6.075 Q 35.173 6.138 35.442 6.28 A 1.803 1.803 0 0 1 35.563 6.35 A 2.183 2.183 0 0 1 36.087 6.808 A 1.957 1.957 0 0 1 36.325 7.175 Q 36.575 7.675 36.575 8.225 A 2.301 2.301 0 0 1 36.482 8.894 A 1.867 1.867 0 0 1 36.087 9.6 A 1.606 1.606 0 0 1 34.947 10.145 A 2.206 2.206 0 0 1 34.8 10.15 A 2.299 2.299 0 0 1 34.256 10.089 A 1.643 1.643 0 0 1 33.575 9.75 A 1.309 1.309 0 0 1 33.112 8.862 A 1.872 1.872 0 0 1 33.1 8.65 A 2.072 2.072 0 0 1 33.156 8.158 A 1.552 1.552 0 0 1 33.412 7.6 A 2.78 2.78 0 0 1 33.826 7.147 A 2.364 2.364 0 0 1 34.125 6.925 A 0.931 0.931 0 0 0 33.686 6.813 Q 33.606 6.812 33.522 6.822 A 1.317 1.317 0 0 0 33.5 6.825 A 2.185 2.185 0 0 0 32.161 7.452 A 2.773 2.773 0 0 0 32.1 7.513 Q 31.5 8.125 31.163 8.962 A 4.951 4.951 0 0 0 30.915 9.753 A 3.722 3.722 0 0 0 30.825 10.55 Z M 54.825 6.1 L 54.825 16.975 Q 54.825 17.813 55.072 18.221 A 0.884 0.884 0 0 0 55.212 18.4 A 1.108 1.108 0 0 0 55.579 18.629 Q 55.947 18.775 56.525 18.775 L 56.525 19.3 A 42.317 42.317 0 0 0 56.27 19.287 Q 55.849 19.266 55.166 19.238 A 187.581 187.581 0 0 0 55.15 19.238 Q 54.225 19.2 53.275 19.2 Q 52.35 19.2 51.4 19.238 A 238.256 238.256 0 0 0 50.955 19.256 Q 50.331 19.281 49.975 19.3 L 49.975 18.775 A 3.602 3.602 0 0 0 50.428 18.749 Q 51.003 18.675 51.288 18.4 Q 51.618 18.081 51.667 17.271 A 4.921 4.921 0 0 0 51.675 16.975 L 51.675 9.125 A 5.801 5.801 0 0 0 51.647 8.53 Q 51.574 7.825 51.313 7.438 Q 51.022 7.008 50.34 6.922 A 2.927 2.927 0 0 0 49.975 6.9 L 49.975 6.375 A 16.828 16.828 0 0 0 51.337 6.449 A 15.188 15.188 0 0 0 51.525 6.45 A 17.595 17.595 0 0 0 52.857 6.401 A 15.285 15.285 0 0 0 53.288 6.363 A 12.303 12.303 0 0 0 54.186 6.236 A 9.753 9.753 0 0 0 54.825 6.1 Z M 53.075 0 Q 53.975 0 54.55 0.5 A 1.643 1.643 0 0 1 55.121 1.697 A 2.262 2.262 0 0 1 55.125 1.825 A 1.914 1.914 0 0 1 55.026 2.453 A 1.607 1.607 0 0 1 54.55 3.15 A 2.003 2.003 0 0 1 53.568 3.608 A 2.792 2.792 0 0 1 53.075 3.65 Q 52.175 3.65 51.6 3.15 A 1.643 1.643 0 0 1 51.029 1.953 A 2.262 2.262 0 0 1 51.025 1.825 A 1.914 1.914 0 0 1 51.124 1.198 A 1.607 1.607 0 0 1 51.6 0.5 A 2.003 2.003 0 0 1 52.582 0.042 A 2.792 2.792 0 0 1 53.075 0 Z"></path>
            <path id="Engineer" fill="#E5261F" d="M141.16,52.672 C143.304,52.672 145.272,52.328 147.064,51.64 C148.856,50.952 150.304,49.92 151.408,48.544 C152.512,47.168 153.064,45.424 153.064,43.312 C153.064,41.584 152.696,40.096 151.96,38.848 C151.224,37.6 150.248,36.48 149.032,35.488 C147.816,34.496 146.44,33.504 144.904,32.512 C143.144,31.296 141.648,30.256 140.416,29.392 C139.184,28.528 138.248,27.64 137.608,26.728 C136.968,25.816 136.648,24.72 136.648,23.44 C136.648,21.904 137.144,20.704 138.136,19.84 C139.128,18.976 140.392,18.544 141.928,18.544 C143.624,18.544 145.056,19.048 146.224,20.056 C147.392,21.064 148.296,22.352 148.936,23.92 C149.576,25.488 149.96,27.104 150.088,28.768 L150.088,28.768 L151.192,28.768 C151.192,26.528 151.2,24.72 151.216,23.344 C151.232,21.968 151.264,20.856 151.312,20.008 C151.36,19.16 151.4,18.432 151.432,17.824 L151.432,17.824 L150.328,17.824 C150.136,19.232 149.784,19.936 149.272,19.936 C149.048,19.936 148.816,19.88 148.576,19.768 C148.336,19.656 148.024,19.488 147.64,19.264 C146.904,18.816 146.024,18.392 145,17.992 C143.976,17.592 142.52,17.392 140.632,17.392 C138.776,17.392 137.024,17.704 135.376,18.328 C133.728,18.952 132.4,19.912 131.392,21.208 C130.384,22.504 129.88,24.16 129.88,26.176 C129.88,27.936 130.272,29.456 131.056,30.736 C131.84,32.016 132.888,33.152 134.2,34.144 C135.512,35.136 136.92,36.128 138.424,37.12 C140.536,38.496 142.264,39.832 143.608,41.128 C144.952,42.424 145.624,44.064 145.624,46.048 C145.624,47.84 145.048,49.184 143.896,50.08 C142.744,50.976 141.336,51.424 139.672,51.424 C137.624,51.424 135.984,50.864 134.752,49.744 C133.52,48.624 132.608,47.144 132.016,45.304 C131.424,43.464 131.064,41.488 130.936,39.376 L130.936,39.376 L129.832,39.376 C129.832,41.904 129.824,43.992 129.808,45.64 C129.792,47.288 129.776,48.624 129.76,49.648 C129.744,50.672 129.704,51.568 129.64,52.336 L129.64,52.336 L130.744,52.336 C130.936,50.928 131.288,50.224 131.8,50.224 C132.184,50.224 132.728,50.448 133.432,50.896 C134.232,51.312 135.224,51.712 136.408,52.096 C137.592,52.48 139.176,52.672 141.16,52.672 Z M167.886314,52.672 C169.678314,52.672 171.214314,52.304 172.494314,51.568 C173.774314,50.832 174.830314,49.888 175.662314,48.736 C176.494314,47.584 177.102314,46.4 177.486314,45.184 L177.486314,45.184 L176.622314,44.896 C175.630314,46.496 174.566314,47.536 173.430314,48.016 C172.294314,48.496 171.246314,48.736 170.286314,48.736 C169.294314,48.736 168.318314,48.424 167.358314,47.8 C166.398314,47.176 165.606314,46.176 164.982314,44.8 C164.358314,43.424 164.046314,41.632 164.046314,39.424 C164.046314,38.976 164.054314,38.544 164.070314,38.128 C164.086314,37.712 164.110314,37.312 164.142314,36.928 L164.124,37.168 L177.582314,37.168 C177.582314,33.5318519 176.840476,30.87493 175.3568,29.1972346 L175.182314,29.008 C173.582314,27.344 171.374314,26.512 168.558314,26.512 C166.286314,26.512 164.262314,27 162.486314,27.976 C160.710314,28.952 159.318314,30.432 158.310314,32.416 C157.302314,34.4 156.798314,36.88 156.798314,39.856 C156.798314,42.768 157.270314,45.168 158.214314,47.056 C159.158314,48.944 160.462314,50.352 162.126314,51.28 C163.790314,52.208 165.710314,52.672 167.886314,52.672 Z M164.020953,36.2195236 C164.199948,33.1746238 164.664401,30.9787826 165.414314,29.632 C166.198314,28.224 167.150314,27.52 168.270314,27.52 C169.070314,27.52 169.710314,27.92 170.190314,28.72 C170.670314,29.52 171.022314,30.584 171.246314,31.912 C171.470314,33.24 171.566314,34.688 171.534314,36.256 L171.534314,36.256 L164.018,36.256 L164.020953,36.2195236 Z M194.871918,52 L194.871918,50.992 C193.367918,50.992 192.239918,50.72 191.487918,50.176 C190.735918,49.632 190.359918,48.592 190.359918,47.056 L190.359918,47.056 L190.359918,34.336 C190.359918,33.472 190.551918,32.592 190.935918,31.696 C191.319918,30.8 191.839918,30.024 192.495918,29.368 C193.151918,28.712 193.895918,28.32 194.727918,28.192 C195.175918,28.032 195.623918,28.016 196.071918,28.144 C195.463918,28.56 194.959918,29.064 194.559918,29.656 C194.159918,30.248 193.959918,30.992 193.959918,31.888 C193.959918,32.816 194.271918,33.56 194.895918,34.12 C195.519918,34.68 196.391918,34.96 197.511918,34.96 C198.631918,34.96 199.535918,34.584 200.223918,33.832 C200.911918,33.08 201.255918,32.112 201.255918,30.928 C201.255918,30.192 201.103918,29.488 200.799918,28.816 C200.495918,28.144 200.023918,27.592 199.383918,27.16 C198.743918,26.728 197.911918,26.512 196.887918,26.512 C195.863918,26.512 194.935918,26.712 194.103918,27.112 C193.271918,27.512 192.535918,28.064 191.895918,28.768 C191.255918,29.472 190.743918,30.256 190.359918,31.12 L190.359918,31.12 L190.359918,26.656 C189.367918,26.88 188.287918,27.048 187.119918,27.16 C185.951918,27.272 184.695918,27.328 183.351918,27.328 C182.391918,27.328 181.399918,27.28 180.375918,27.184 L180.375918,27.184 L180.375918,28.192 C181.559918,28.192 182.367918,28.536 182.799918,29.224 C183.231918,29.912 183.447918,30.976 183.447918,32.416 L183.447918,32.416 L183.447918,47.536 C183.447918,48.88 183.215918,49.792 182.751918,50.272 C182.287918,50.752 181.495918,50.992 180.375918,50.992 L180.375918,50.992 L180.375918,52 C181.047918,51.968 182.039918,51.928 183.351918,51.88 C184.663918,51.832 185.959918,51.808 187.239918,51.808 C188.775918,51.808 190.247918,51.832 191.655918,51.88 C193.063918,51.928 194.135918,51.968 194.871918,52 L194.871918,52 Z M209.012676,22.192 C210.356676,22.192 211.420676,21.864 212.204676,21.208 C212.988676,20.552 213.380676,19.648 213.380676,18.496 C213.380676,17.344 212.988676,16.44 212.204676,15.784 C211.420676,15.128 210.356676,14.8 209.012676,14.8 C207.668676,14.8 206.604676,15.128 205.820676,15.784 C205.036676,16.44 204.644676,17.344 204.644676,18.496 C204.644676,19.648 205.036676,20.552 205.820676,21.208 C206.604676,21.864 207.668676,22.192 209.012676,22.192 Z M215.828676,52 L215.828676,50.992 C214.708676,50.992 213.916676,50.752 213.452676,50.272 C212.988676,49.792 212.756676,48.88 212.756676,47.536 L212.756676,47.536 L212.756676,26.656 C211.764676,26.88 210.684676,27.048 209.516676,27.16 C208.348676,27.272 207.092676,27.328 205.748676,27.328 C204.788676,27.328 203.796676,27.28 202.772676,27.184 L202.772676,27.184 L202.772676,28.192 C203.956676,28.192 204.764676,28.536 205.196676,29.224 C205.628676,29.912 205.844676,30.976 205.844676,32.416 L205.844676,32.416 L205.844676,47.536 C205.844676,48.88 205.612676,49.792 205.148676,50.272 C204.684676,50.752 203.892676,50.992 202.772676,50.992 L202.772676,50.992 L202.772676,52 C203.412676,51.968 204.372676,51.928 205.652676,51.88 C206.932676,51.832 208.196676,51.808 209.444676,51.808 C210.692676,51.808 211.924676,51.832 213.140676,51.88 C214.356676,51.928 215.252676,51.968 215.828676,52 L215.828676,52 Z M232.398232,52 L232.398232,50.992 C230.990232,50.992 229.886232,50.728 229.086232,50.2 C228.286232,49.672 227.886232,48.624 227.886232,47.056 L227.886232,47.056 L227.886232,28.192 L233.022232,28.192 L233.022232,27.232 L227.886232,27.232 L227.886232,22.864 C227.886232,20.976 227.950232,19.576 228.078232,18.664 C228.206232,17.752 228.446232,17.056 228.798232,16.576 C229.054232,16.192 229.390232,15.888 229.806232,15.664 C230.222232,15.44 230.750232,15.328 231.390232,15.328 C231.870232,15.328 232.254232,15.392 232.542232,15.52 C232.830232,15.648 233.022232,15.808 233.118232,16 C232.190232,16.256 231.486232,16.704 231.006232,17.344 C230.526232,17.984 230.286232,18.72 230.286232,19.552 C230.286232,20.608 230.630232,21.44 231.318232,22.048 C232.006232,22.656 232.878232,22.96 233.934232,22.96 C234.958232,22.96 235.782232,22.624 236.406232,21.952 C237.030232,21.28 237.342232,20.512 237.342232,19.648 C237.342232,18.848 237.182232,18.136 236.862232,17.512 C236.542232,16.888 236.158232,16.4 235.710232,16.048 C235.070232,15.568 234.334232,15.184 233.502232,14.896 C232.670232,14.608 231.694232,14.464 230.574232,14.464 C229.230232,14.464 227.974232,14.696 226.806232,15.16 C225.638232,15.624 224.702232,16.192 223.998232,16.864 C222.878232,17.952 222.094232,19.24 221.646232,20.728 C221.198232,22.216 220.974232,24.384 220.974232,27.232 L220.974232,27.232 L217.710232,27.232 L217.710232,28.192 L220.974232,28.192 L220.974232,47.536 C220.974232,48.88 220.742232,49.792 220.278232,50.272 C219.814232,50.752 219.022232,50.992 217.902232,50.992 L217.902232,50.992 L217.902232,52 C218.510232,51.968 219.398232,51.928 220.566232,51.88 C221.734232,51.832 222.926232,51.808 224.142232,51.808 C225.806232,51.808 227.390232,51.832 228.894232,51.88 C230.398232,51.928 231.566232,51.968 232.398232,52 L232.398232,52 Z"></path>
        </g>
    </g>
</svg>
