<?xml version="1.0" encoding="UTF-8"?>
<svg width="453.176px" height="52.295px" viewBox="0 0 453 52" version="1.1" xmlns="http://www.w3.org/2000/svg" xmlns:xlink="http://www.w3.org/1999/xlink">
    <title>logo</title>
    <g id="Page-1" stroke="none" stroke-width="1" fill="none" fill-rule="evenodd">
        <g id="logo" transform="translate(2.000000, 0.000000)" fill-rule="nonzero">
            <path id="Service." fill="#2f2f41" d="M 26.197 3.752 L 27.738 3.752 Q 27.692 4.581 27.63 5.616 A 697.599 697.599 0 0 1 27.571 6.6 A 51.997 51.997 0 0 0 27.524 7.485 Q 27.47 8.711 27.444 10.368 A 168.864 168.864 0 0 0 27.436 10.921 Q 27.403 13.601 27.403 17.956 L 25.862 17.956 Q 25.661 14.673 24.422 11.591 A 12.841 12.841 0 0 0 22.366 8.11 A 11.621 11.621 0 0 0 20.803 6.566 A 8.439 8.439 0 0 0 17.018 4.832 A 11.845 11.845 0 0 0 14.74 4.623 A 9.387 9.387 0 0 0 12.02 5.001 A 7.553 7.553 0 0 0 9.078 6.667 A 6.76 6.76 0 0 0 6.869 11.243 A 9.315 9.315 0 0 0 6.834 12.06 A 9.741 9.741 0 0 0 7.087 14.335 A 7.177 7.177 0 0 0 8.308 16.985 Q 9.782 18.961 12.362 20.67 A 281.895 281.895 0 0 0 15.025 22.411 Q 16.437 23.323 18.013 24.322 A 459.464 459.464 0 0 0 18.224 24.455 A 83.814 83.814 0 0 1 21.781 26.857 A 66.532 66.532 0 0 1 24.254 28.71 A 19.237 19.237 0 0 1 26.909 31.222 A 15.682 15.682 0 0 1 28.475 33.366 A 10.377 10.377 0 0 1 29.762 36.768 A 14.305 14.305 0 0 1 30.016 39.53 A 15.292 15.292 0 0 1 29.704 42.703 Q 29.248 44.854 28.125 46.514 A 9.684 9.684 0 0 1 27.973 46.733 A 12.32 12.32 0 0 1 22.618 50.943 A 14.649 14.649 0 0 1 22.512 50.987 A 18.855 18.855 0 0 1 16.764 52.327 A 22.546 22.546 0 0 1 15.008 52.394 A 28.733 28.733 0 0 1 12.813 52.316 Q 11.724 52.232 10.806 52.059 A 11.26 11.26 0 0 1 9.045 51.59 Q 7.154 50.902 5.752 50.166 A 17.269 17.269 0 0 1 5.293 49.915 Q 4.16 49.194 3.423 49.027 A 1.859 1.859 0 0 0 3.015 48.977 A 0.844 0.844 0 0 0 2.357 49.326 Q 1.805 49.991 1.541 51.925 L 0 51.925 Q 0.108 50.739 0.151 49.228 A 66.505 66.505 0 0 0 0.167 48.475 Q 0.201 46.498 0.235 43.282 Q 0.266 40.226 0.268 35.658 A 1390.194 1390.194 0 0 0 0.268 35.175 L 1.809 35.175 A 30.766 30.766 0 0 0 2.757 41.105 A 27.336 27.336 0 0 0 3.317 42.947 Q 4.556 46.565 7.136 48.743 A 8.867 8.867 0 0 0 10.773 50.554 Q 12.06 50.874 13.568 50.915 A 16.381 16.381 0 0 0 14.003 50.92 Q 17.353 50.92 19.966 48.877 Q 22.391 46.98 22.566 43.092 A 13.713 13.713 0 0 0 22.579 42.478 A 9.609 9.609 0 0 0 21.878 38.761 A 9.001 9.001 0 0 0 19.732 35.678 Q 16.884 32.964 12.261 30.15 Q 9.112 28.14 6.365 26.13 A 17.039 17.039 0 0 1 2.995 22.904 A 15.385 15.385 0 0 1 1.976 21.44 Q 0.335 18.76 0.335 15.075 A 14.335 14.335 0 0 1 0.615 12.162 Q 1.003 10.294 1.927 8.84 A 8.725 8.725 0 0 1 2.245 8.375 Q 4.154 5.762 7.203 4.489 A 16.754 16.754 0 0 1 13.626 3.217 A 19.014 19.014 0 0 1 13.735 3.216 A 25.253 25.253 0 0 1 15.696 3.287 Q 17.616 3.437 18.874 3.905 A 6.368 6.368 0 0 1 19.162 4.02 A 23.521 23.521 0 0 1 20.921 4.858 A 17.721 17.721 0 0 1 22.445 5.762 Q 23.212 6.21 23.705 6.444 A 7.571 7.571 0 0 0 23.751 6.466 A 2.635 2.635 0 0 0 24.238 6.64 A 2.033 2.033 0 0 0 24.723 6.7 A 0.844 0.844 0 0 0 25.381 6.352 Q 25.933 5.687 26.197 3.752 Z M 64.186 30.753 L 41.071 30.753 L 40.937 29.48 L 57.084 29.48 Q 57.151 26.197 56.548 23.417 A 15.126 15.126 0 0 0 56.002 21.487 Q 55.639 20.482 55.155 19.676 A 7.914 7.914 0 0 0 54.672 18.961 Q 53.421 17.315 51.394 17.287 A 5.101 5.101 0 0 0 51.322 17.286 Q 48.565 17.286 46.513 20.078 A 11.199 11.199 0 0 0 46.331 20.335 A 10.748 10.748 0 0 0 45.122 22.728 Q 44.215 25.18 43.854 28.85 A 44.219 44.219 0 0 0 43.751 30.083 L 43.952 30.418 Q 43.885 31.356 43.818 32.462 Q 43.751 33.567 43.751 34.639 A 25.206 25.206 0 0 0 43.966 38.026 Q 44.204 39.779 44.706 41.256 A 13.427 13.427 0 0 0 45.158 42.411 A 13.77 13.77 0 0 0 46.445 44.71 Q 47.417 46.095 48.654 47.001 A 8.604 8.604 0 0 0 48.843 47.135 A 9.566 9.566 0 0 0 50.849 48.211 A 7.252 7.252 0 0 0 53.466 48.709 Q 56.146 48.709 58.659 47.369 Q 61.171 46.029 62.98 42.411 L 64.32 42.947 A 15.471 15.471 0 0 1 62.89 45.908 A 19.228 19.228 0 0 1 61.841 47.436 A 12.614 12.614 0 0 1 57.876 50.846 A 14.596 14.596 0 0 1 57.553 51.021 A 11.805 11.805 0 0 1 53.848 52.217 A 15.542 15.542 0 0 1 51.456 52.394 A 17.591 17.591 0 0 1 47.196 51.899 A 14.061 14.061 0 0 1 43.282 50.284 A 13.646 13.646 0 0 1 38.229 44.834 A 16.638 16.638 0 0 1 37.922 44.22 A 18.751 18.751 0 0 1 36.431 39.456 Q 36.058 37.367 36.046 34.994 A 31.199 31.199 0 0 1 36.046 34.84 A 30.707 30.707 0 0 1 36.367 30.283 Q 36.747 27.748 37.58 25.618 A 17.83 17.83 0 0 1 37.989 24.656 A 16.182 16.182 0 0 1 40.476 20.754 A 13.73 13.73 0 0 1 43.449 18.191 A 14.324 14.324 0 0 1 49.895 16.025 A 17.858 17.858 0 0 1 51.59 15.946 A 15.736 15.736 0 0 1 55.489 16.402 A 10.882 10.882 0 0 1 60.836 19.497 A 10.672 10.672 0 0 1 63.036 23.15 Q 63.647 24.791 63.933 26.834 A 28.309 28.309 0 0 1 64.186 30.753 Z M 214.333 30.753 L 191.218 30.753 L 191.084 29.48 L 207.231 29.48 Q 207.298 26.197 206.695 23.417 A 15.126 15.126 0 0 0 206.149 21.487 Q 205.786 20.482 205.302 19.676 A 7.914 7.914 0 0 0 204.819 18.961 Q 203.568 17.315 201.541 17.287 A 5.101 5.101 0 0 0 201.469 17.286 Q 198.712 17.286 196.66 20.078 A 11.199 11.199 0 0 0 196.478 20.335 A 10.748 10.748 0 0 0 195.269 22.728 Q 194.362 25.18 194.001 28.85 A 44.219 44.219 0 0 0 193.898 30.083 L 194.099 30.418 Q 194.032 31.356 193.965 32.462 Q 193.898 33.567 193.898 34.639 A 25.206 25.206 0 0 0 194.113 38.026 Q 194.351 39.779 194.853 41.256 A 13.427 13.427 0 0 0 195.305 42.411 A 13.77 13.77 0 0 0 196.592 44.71 Q 197.564 46.095 198.801 47.001 A 8.604 8.604 0 0 0 198.99 47.135 A 9.566 9.566 0 0 0 200.996 48.211 A 7.252 7.252 0 0 0 203.613 48.709 Q 206.293 48.709 208.806 47.369 Q 211.318 46.029 213.127 42.411 L 214.467 42.947 A 15.471 15.471 0 0 1 213.037 45.908 A 19.228 19.228 0 0 1 211.988 47.436 A 12.614 12.614 0 0 1 208.023 50.846 A 14.596 14.596 0 0 1 207.7 51.021 A 11.805 11.805 0 0 1 203.995 52.217 A 15.542 15.542 0 0 1 201.603 52.394 A 17.591 17.591 0 0 1 197.343 51.899 A 14.061 14.061 0 0 1 193.429 50.284 A 13.646 13.646 0 0 1 188.376 44.834 A 16.638 16.638 0 0 1 188.069 44.22 A 18.751 18.751 0 0 1 186.578 39.456 Q 186.205 37.367 186.193 34.994 A 31.199 31.199 0 0 1 186.193 34.84 A 30.707 30.707 0 0 1 186.514 30.283 Q 186.894 27.748 187.727 25.618 A 17.83 17.83 0 0 1 188.136 24.656 A 16.182 16.182 0 0 1 190.623 20.754 A 13.73 13.73 0 0 1 193.596 18.191 A 14.324 14.324 0 0 1 200.042 16.025 A 17.858 17.858 0 0 1 201.737 15.946 A 15.736 15.736 0 0 1 205.636 16.402 A 10.882 10.882 0 0 1 210.983 19.497 A 10.672 10.672 0 0 1 213.183 23.15 Q 213.794 24.791 214.08 26.834 A 28.309 28.309 0 0 1 214.333 30.753 Z M 130.315 16.884 L 130.315 18.224 A 3.873 3.873 0 0 0 128.762 18.847 A 5.427 5.427 0 0 0 127.936 19.531 A 5.373 5.373 0 0 0 127.262 20.375 Q 126.538 21.474 125.893 23.316 L 115.307 51.724 L 114.202 51.724 L 113.096 51.724 L 100.902 22.043 A 16.744 16.744 0 0 0 100.401 20.931 Q 99.587 19.297 98.792 18.861 A 6.377 6.377 0 0 0 98.176 18.562 Q 97.524 18.291 97.016 18.291 L 97.016 16.884 A 135.68 135.68 0 0 0 100.119 17.106 A 148.14 148.14 0 0 0 100.333 17.119 Q 102.041 17.219 104.118 17.219 A 96.246 96.246 0 0 0 107.085 17.172 A 113.025 113.025 0 0 0 108.507 17.119 Q 110.818 17.018 112.828 16.884 L 112.828 18.291 Q 111.39 18.291 110.246 18.452 A 12.774 12.774 0 0 0 109.981 18.492 A 2.727 2.727 0 0 0 109.321 18.68 A 1.7 1.7 0 0 0 108.373 19.665 A 1.702 1.702 0 0 0 108.283 20.022 Q 108.136 21.022 108.808 22.981 L 117.049 43.751 L 116.513 44.287 L 123.414 25.996 Q 124.876 22.01 123.834 20.264 A 2.497 2.497 0 0 0 123.816 20.234 A 3.428 3.428 0 0 0 122.494 19.027 Q 121.379 18.421 119.578 18.246 A 13.707 13.707 0 0 0 119.327 18.224 L 119.327 16.884 Q 121.002 16.951 122.376 17.018 A 57.731 57.731 0 0 0 124.856 17.084 A 64.036 64.036 0 0 0 125.223 17.085 A 58.192 58.192 0 0 0 127 17.059 A 48.614 48.614 0 0 0 128.004 17.018 Q 129.126 16.961 130.026 16.903 A 107.667 107.667 0 0 0 130.315 16.884 Z M 179.895 42.21 L 181.168 42.679 A 15.997 15.997 0 0 1 180.074 45.188 A 20.817 20.817 0 0 1 178.857 47.168 A 12.523 12.523 0 0 1 174.973 50.78 A 14.487 14.487 0 0 1 174.736 50.92 A 10.547 10.547 0 0 1 171.561 52.102 Q 170.234 52.376 168.709 52.393 A 18.186 18.186 0 0 1 168.505 52.394 A 14.734 14.734 0 0 1 162.739 51.274 A 14.158 14.158 0 0 1 160.867 50.317 A 13.968 13.968 0 0 1 156.387 45.906 A 17.479 17.479 0 0 1 155.44 44.254 Q 153.618 40.641 153.448 35.57 A 31.638 31.638 0 0 1 153.43 34.505 A 26.177 26.177 0 0 1 153.864 29.623 A 19.468 19.468 0 0 1 155.473 24.69 A 16.45 16.45 0 0 1 158.363 20.486 A 14.588 14.588 0 0 1 161.135 18.224 Q 164.753 15.946 169.376 15.946 A 16.457 16.457 0 0 1 173.536 16.464 A 15.424 15.424 0 0 1 173.731 16.516 A 14.305 14.305 0 0 1 175.787 17.244 A 11.273 11.273 0 0 1 177.349 18.09 A 8.174 8.174 0 0 1 178.764 19.196 A 6.509 6.509 0 0 1 179.794 20.502 Q 180.632 21.909 180.632 23.584 Q 180.632 25.424 179.678 26.534 A 3.606 3.606 0 0 1 179.493 26.733 A 3.838 3.838 0 0 1 177.147 27.839 A 5.242 5.242 0 0 1 176.545 27.872 A 5.377 5.377 0 0 1 175.126 27.693 A 4.179 4.179 0 0 1 173.53 26.867 A 3.258 3.258 0 0 1 172.409 24.921 A 4.889 4.889 0 0 1 172.324 23.986 A 4.933 4.933 0 0 1 172.487 22.688 A 3.718 3.718 0 0 1 173.329 21.139 A 4.949 4.949 0 0 1 174.603 20.118 A 4.446 4.446 0 0 1 175.674 19.698 A 3.483 3.483 0 0 0 174.95 18.856 Q 174.602 18.557 174.148 18.293 A 7.419 7.419 0 0 0 173.563 17.99 Q 172.056 17.286 170.314 17.286 Q 168.505 17.286 166.864 18.224 A 7.622 7.622 0 0 0 165.133 19.598 A 10.559 10.559 0 0 0 163.949 21.105 Q 162.901 22.704 162.194 25.075 A 24.332 24.332 0 0 0 161.905 26.13 A 23.529 23.529 0 0 0 161.393 28.957 Q 161.215 30.396 161.16 32.035 A 45.446 45.446 0 0 0 161.135 33.567 A 39.801 39.801 0 0 0 161.263 36.859 Q 161.543 40.232 162.442 42.512 A 13.926 13.926 0 0 0 163.432 44.556 Q 164.055 45.597 164.805 46.346 A 6.881 6.881 0 0 0 165.892 47.235 Q 168.036 48.642 170.515 48.642 A 9.101 9.101 0 0 0 173.082 48.255 Q 174.248 47.913 175.473 47.269 A 8.314 8.314 0 0 0 177.746 45.473 Q 178.553 44.586 179.256 43.397 A 17.405 17.405 0 0 0 179.895 42.21 Z M 80.869 29.145 L 80.869 44.555 Q 80.869 47.838 82.678 48.944 A 6.594 6.594 0 0 0 84.343 49.649 Q 85.145 49.874 86.108 49.973 A 15.713 15.713 0 0 0 87.703 50.049 L 87.703 51.456 A 275.839 275.839 0 0 0 86.851 51.421 Q 85.45 51.364 83.315 51.289 Q 80.467 51.188 77.318 51.188 Q 74.906 51.188 72.494 51.289 A 695.894 695.894 0 0 0 71.359 51.337 Q 70.262 51.384 69.468 51.423 A 165.511 165.511 0 0 0 68.809 51.456 L 68.809 50.049 Q 71.422 50.049 72.528 49.044 Q 73.5 48.16 73.617 45.875 A 12.739 12.739 0 0 0 73.633 45.225 L 73.633 24.187 A 14.435 14.435 0 0 0 73.554 22.616 Q 73.377 21.007 72.807 20.014 A 3.798 3.798 0 0 0 72.628 19.732 A 2.936 2.936 0 0 0 71.346 18.722 Q 70.348 18.291 68.809 18.291 L 68.809 16.884 Q 70.953 17.085 72.963 17.085 A 39.082 39.082 0 0 0 75.676 16.995 A 31.901 31.901 0 0 0 77.218 16.851 A 26.02 26.02 0 0 0 79.542 16.472 A 21.255 21.255 0 0 0 80.869 16.147 L 80.869 23.852 A 17.382 17.382 0 0 1 82.686 20.555 A 19.516 19.516 0 0 1 83.013 20.1 Q 84.353 18.291 86.229 17.119 Q 88.105 15.946 90.383 15.946 A 7.844 7.844 0 0 1 91.948 16.095 A 5.682 5.682 0 0 1 93.7 16.75 A 6.037 6.037 0 0 1 95.001 17.76 A 5.12 5.12 0 0 1 95.777 18.794 Q 96.48 20.033 96.48 21.574 A 5.354 5.354 0 0 1 96.178 23.401 A 4.767 4.767 0 0 1 95.307 24.891 A 3.832 3.832 0 0 1 92.498 26.255 A 5.247 5.247 0 0 1 92.192 26.264 A 4.635 4.635 0 0 1 90.665 26.021 A 4.052 4.052 0 0 1 89.344 25.259 A 3.295 3.295 0 0 1 88.202 23.051 A 4.692 4.692 0 0 1 88.172 22.512 A 4.697 4.697 0 0 1 88.336 21.246 A 3.774 3.774 0 0 1 88.942 20 A 6.515 6.515 0 0 1 90.026 18.848 A 5.675 5.675 0 0 1 90.718 18.358 Q 90.122 17.882 89.315 17.882 A 2.879 2.879 0 0 0 89.11 17.889 Q 86.698 18.023 84.856 19.866 A 13.166 13.166 0 0 0 82.258 23.602 A 15.394 15.394 0 0 0 81.941 24.321 Q 80.985 26.651 80.882 28.661 A 9.403 9.403 0 0 0 80.869 29.145 Z M 144.318 16.147 L 144.318 45.225 A 11.185 11.185 0 0 0 144.387 46.517 Q 144.594 48.29 145.424 49.044 Q 146.529 50.049 149.142 50.049 L 149.142 51.456 A 96.624 96.624 0 0 0 148.495 51.421 Q 147.408 51.364 145.625 51.289 Q 143.246 51.188 140.767 51.188 A 118.836 118.836 0 0 0 136.098 51.283 A 129.465 129.465 0 0 0 135.943 51.289 A 557.158 557.158 0 0 0 134.783 51.337 Q 133.163 51.406 132.258 51.456 L 132.258 50.049 Q 134.871 50.049 135.977 49.044 Q 136.949 48.16 137.066 45.875 A 12.739 12.739 0 0 0 137.082 45.225 L 137.082 24.187 A 14.435 14.435 0 0 0 137.003 22.616 Q 136.826 21.007 136.256 20.014 A 3.798 3.798 0 0 0 136.077 19.732 A 2.936 2.936 0 0 0 134.795 18.722 Q 133.797 18.291 132.258 18.291 L 132.258 16.884 Q 134.402 17.085 136.412 17.085 A 39.082 39.082 0 0 0 139.125 16.995 A 31.901 31.901 0 0 0 140.667 16.851 A 26.02 26.02 0 0 0 142.991 16.472 A 21.255 21.255 0 0 0 144.318 16.147 Z M 140.298 0 Q 142.375 0 143.782 1.307 A 4.234 4.234 0 0 1 145.186 4.376 A 5.246 5.246 0 0 1 145.189 4.556 A 4.394 4.394 0 0 1 144.768 6.491 A 4.4 4.4 0 0 1 143.782 7.806 Q 142.375 9.112 140.298 9.112 Q 138.221 9.112 136.814 7.806 A 4.234 4.234 0 0 1 135.41 4.737 A 5.246 5.246 0 0 1 135.407 4.556 A 4.394 4.394 0 0 1 135.828 2.621 A 4.4 4.4 0 0 1 136.814 1.307 Q 138.221 0 140.298 0 Z M 227.628 43.537 A 5.102 5.102 0 0 0 225.79 43.215 A 6.094 6.094 0 0 0 225.665 43.217 A 4.698 4.698 0 0 0 222.406 44.522 A 4.29 4.29 0 0 0 221.325 46.135 A 4.809 4.809 0 0 0 221.033 47.838 Q 221.033 49.781 222.407 51.088 A 4.627 4.627 0 0 0 223.952 52.073 A 5.102 5.102 0 0 0 225.79 52.394 A 6.094 6.094 0 0 0 225.915 52.393 A 4.698 4.698 0 0 0 229.174 51.088 A 4.373 4.373 0 0 0 230.171 49.698 A 4.509 4.509 0 0 0 230.547 47.838 Q 230.547 45.828 229.174 44.522 A 4.627 4.627 0 0 0 227.628 43.537 Z"></path>
            <path id="Engineer" fill="#E5261F" d="M 27.733 13.785 L 26.475 13.785 Q 26.092 10.284 25.299 8.26 A 6.749 6.749 0 0 0 24.579 6.883 A 4.709 4.709 0 0 0 22.947 5.388 Q 21.844 4.789 20.127 4.613 A 15.068 15.068 0 0 0 18.598 4.54 L 14.824 4.54 A 16.481 16.481 0 0 0 13.906 4.564 Q 13.021 4.614 12.427 4.766 A 3.789 3.789 0 0 0 12.171 4.841 A 1.942 1.942 0 0 0 11.397 5.307 Q 11.105 5.599 10.945 6.031 A 2.473 2.473 0 0 0 10.94 6.045 A 4.027 4.027 0 0 0 10.781 6.632 Q 10.653 7.277 10.622 8.221 A 19.367 19.367 0 0 0 10.612 8.862 L 10.612 36.43 A 16.935 16.935 0 0 0 10.638 37.403 Q 10.704 38.552 10.94 39.22 A 2.086 2.086 0 0 0 11.319 39.893 A 1.878 1.878 0 0 0 12.171 40.451 A 4.551 4.551 0 0 0 12.799 40.606 Q 13.607 40.752 14.824 40.752 L 18.379 40.752 Q 21.497 40.752 23.33 39.767 A 5.852 5.852 0 0 0 25.493 37.731 A 7.982 7.982 0 0 0 26.119 36.54 Q 27.077 34.297 27.569 30.413 L 28.827 30.413 A 25.173 25.173 0 0 0 28.74 31.501 Q 28.665 32.761 28.663 34.457 A 79.684 79.684 0 0 0 28.663 34.571 A 40.072 40.072 0 0 0 28.668 35.179 Q 28.683 36.184 28.745 37.743 A 70.883 70.883 0 0 0 29.032 41.873 A 77.011 77.011 0 0 0 29.046 42.01 A 169.548 169.548 0 0 0 26.176 41.923 Q 24.56 41.887 22.755 41.873 Q 19.747 41.85 17.304 41.846 A 579.955 579.955 0 0 0 16.519 41.846 L 12.007 41.846 A 641.327 641.327 0 0 0 9.094 41.853 A 776.347 776.347 0 0 0 5.99 41.873 A 217.103 217.103 0 0 0 2.892 41.921 A 176.944 176.944 0 0 0 0 42.01 L 0 40.916 A 20.5 20.5 0 0 0 0.973 40.837 Q 1.875 40.741 2.48 40.574 A 4.535 4.535 0 0 0 2.79 40.478 Q 3.72 40.15 4.02 39.165 Q 4.274 38.335 4.314 36.804 A 22.866 22.866 0 0 0 4.321 36.212 L 4.321 9.08 A 22.184 22.184 0 0 0 4.302 8.135 Q 4.261 7.156 4.125 6.508 A 4.3 4.3 0 0 0 4.02 6.099 A 1.946 1.946 0 0 0 2.971 4.875 A 2.466 2.466 0 0 0 2.762 4.786 Q 1.805 4.431 0 4.376 L 0 3.282 Q 2.79 3.337 5.99 3.392 Q 9.19 3.446 12.007 3.446 L 16.519 3.446 A 556.693 556.693 0 0 0 19.029 3.44 Q 20.536 3.433 22.236 3.419 Q 25.223 3.393 27.615 3.296 A 116.641 116.641 0 0 0 27.952 3.282 Q 27.733 5.361 27.651 7.303 A 143.708 143.708 0 0 0 27.615 8.217 Q 27.569 9.504 27.569 10.284 A 35.369 35.369 0 0 0 27.595 11.661 A 29.981 29.981 0 0 0 27.624 12.253 Q 27.675 13.137 27.727 13.724 A 25.578 25.578 0 0 0 27.733 13.785 Z M 59.842 22.263 L 59.842 36.923 A 9.132 9.132 0 0 0 59.898 37.977 Q 60.025 39.069 60.442 39.688 A 1.934 1.934 0 0 0 60.744 40.041 Q 61.579 40.799 63.465 40.856 A 10.386 10.386 0 0 0 63.78 40.861 L 63.78 42.01 A 75.829 75.829 0 0 0 63.25 41.981 Q 62.358 41.935 60.881 41.873 A 93.295 93.295 0 0 0 56.997 41.791 A 82.535 82.535 0 0 0 53.305 41.873 Q 51.473 41.955 50.543 42.01 L 50.543 40.861 A 6.643 6.643 0 0 0 51.454 40.803 Q 52.498 40.658 53.057 40.15 A 1.884 1.884 0 0 0 53.168 40.041 Q 53.804 39.36 53.912 37.662 A 11.653 11.653 0 0 0 53.934 36.923 L 53.934 20.732 Q 53.934 19.145 53.661 17.86 Q 53.387 16.574 52.512 15.781 A 2.747 2.747 0 0 0 51.542 15.226 Q 51.128 15.085 50.622 15.027 A 6.535 6.535 0 0 0 49.886 14.988 A 5.953 5.953 0 0 0 45.352 16.949 A 7.771 7.771 0 0 0 44.881 17.504 Q 42.94 20.02 42.94 23.74 L 42.94 36.923 A 10.416 10.416 0 0 0 42.988 37.964 Q 43.135 39.422 43.733 40.041 A 2.34 2.34 0 0 0 44.582 40.587 Q 45.287 40.861 46.331 40.861 L 46.331 42.01 Q 45.46 41.955 43.694 41.874 A 300.793 300.793 0 0 0 43.678 41.873 A 77.987 77.987 0 0 0 40.934 41.796 A 86.976 86.976 0 0 0 39.986 41.791 A 92.977 92.977 0 0 0 37.104 41.837 A 105.589 105.589 0 0 0 36.102 41.873 A 454.878 454.878 0 0 0 35.155 41.912 Q 33.848 41.968 33.111 42.009 A 71.57 71.57 0 0 0 33.094 42.01 L 33.094 40.861 A 8.768 8.768 0 0 0 34.14 40.803 Q 35.264 40.668 35.912 40.214 A 2.193 2.193 0 0 0 36.129 40.041 A 2.196 2.196 0 0 0 36.652 39.281 Q 37.032 38.412 37.032 36.923 L 37.032 19.747 A 11.785 11.785 0 0 0 36.967 18.464 Q 36.801 16.955 36.211 16.109 A 2.397 2.397 0 0 0 35.165 15.285 Q 34.35 14.933 33.094 14.933 L 33.094 13.785 A 36.821 36.821 0 0 0 36.073 13.946 A 33.235 33.235 0 0 0 36.485 13.949 A 31.907 31.907 0 0 0 38.7 13.875 A 26.044 26.044 0 0 0 39.958 13.757 A 21.243 21.243 0 0 0 41.856 13.448 A 17.353 17.353 0 0 0 42.94 13.183 L 42.94 19.145 A 12.452 12.452 0 0 1 44.099 16.969 Q 44.958 15.702 46.058 14.893 A 7.13 7.13 0 0 1 46.851 14.386 Q 49.339 13.019 52.129 13.019 A 13.787 13.787 0 0 1 53.54 13.087 Q 54.247 13.16 54.846 13.311 A 6.364 6.364 0 0 1 55.712 13.593 Q 57.107 14.168 58.037 15.152 A 5.383 5.383 0 0 1 59.072 16.753 A 7.132 7.132 0 0 1 59.432 17.832 Q 59.823 19.398 59.841 22.011 A 36.875 36.875 0 0 1 59.842 22.263 Z M 138.555 22.263 L 138.555 36.923 A 9.132 9.132 0 0 0 138.611 37.977 Q 138.739 39.069 139.155 39.688 A 1.934 1.934 0 0 0 139.458 40.041 Q 140.292 40.799 142.178 40.856 A 10.386 10.386 0 0 0 142.494 40.861 L 142.494 42.01 A 75.829 75.829 0 0 0 141.964 41.981 Q 141.071 41.935 139.594 41.873 A 93.295 93.295 0 0 0 135.711 41.791 A 82.535 82.535 0 0 0 132.018 41.873 Q 130.186 41.955 129.256 42.01 L 129.256 40.861 A 6.643 6.643 0 0 0 130.167 40.803 Q 131.211 40.658 131.771 40.15 A 1.884 1.884 0 0 0 131.882 40.041 Q 132.517 39.36 132.625 37.662 A 11.653 11.653 0 0 0 132.648 36.923 L 132.648 20.732 Q 132.648 19.145 132.374 17.86 Q 132.101 16.574 131.225 15.781 A 2.747 2.747 0 0 0 130.255 15.226 Q 129.842 15.085 129.336 15.027 A 6.535 6.535 0 0 0 128.6 14.988 A 5.953 5.953 0 0 0 124.065 16.949 A 7.771 7.771 0 0 0 123.595 17.504 Q 121.653 20.02 121.653 23.74 L 121.653 36.923 A 10.416 10.416 0 0 0 121.701 37.964 Q 121.848 39.422 122.446 40.041 A 2.34 2.34 0 0 0 123.295 40.587 Q 124.001 40.861 125.044 40.861 L 125.044 42.01 Q 124.173 41.955 122.407 41.874 A 300.793 300.793 0 0 0 122.391 41.873 A 77.987 77.987 0 0 0 119.648 41.796 A 86.976 86.976 0 0 0 118.699 41.791 A 92.977 92.977 0 0 0 115.817 41.837 A 105.589 105.589 0 0 0 114.815 41.873 A 454.878 454.878 0 0 0 113.868 41.912 Q 112.561 41.968 111.824 42.009 A 71.57 71.57 0 0 0 111.807 42.01 L 111.807 40.861 A 8.768 8.768 0 0 0 112.853 40.803 Q 113.978 40.668 114.625 40.214 A 2.193 2.193 0 0 0 114.843 40.041 A 2.196 2.196 0 0 0 115.366 39.281 Q 115.745 38.412 115.745 36.923 L 115.745 19.747 A 11.785 11.785 0 0 0 115.68 18.464 Q 115.514 16.955 114.925 16.109 A 2.397 2.397 0 0 0 113.878 15.285 Q 113.063 14.933 111.807 14.933 L 111.807 13.785 A 36.821 36.821 0 0 0 114.786 13.946 A 33.235 33.235 0 0 0 115.198 13.949 A 31.907 31.907 0 0 0 117.413 13.875 A 26.044 26.044 0 0 0 118.672 13.757 A 21.243 21.243 0 0 0 120.57 13.448 A 17.353 17.353 0 0 0 121.653 13.183 L 121.653 19.145 A 12.452 12.452 0 0 1 122.813 16.969 Q 123.671 15.702 124.771 14.893 A 7.13 7.13 0 0 1 125.564 14.386 Q 128.053 13.019 130.842 13.019 A 13.787 13.787 0 0 1 132.253 13.087 Q 132.96 13.16 133.559 13.311 A 6.364 6.364 0 0 1 134.425 13.593 Q 135.82 14.168 136.75 15.152 A 5.383 5.383 0 0 1 137.785 16.753 A 7.132 7.132 0 0 1 138.145 17.832 Q 138.536 19.398 138.554 22.011 A 36.875 36.875 0 0 1 138.555 22.263 Z M 168.64 25.108 L 149.769 25.108 L 149.659 24.068 L 162.842 24.068 A 26.071 26.071 0 0 0 162.847 23.536 Q 162.847 21.161 162.404 19.118 A 12.349 12.349 0 0 0 161.958 17.542 Q 161.522 16.335 160.873 15.48 A 3.515 3.515 0 0 0 159.817 14.534 Q 159.101 14.126 158.196 14.113 A 4.164 4.164 0 0 0 158.138 14.113 A 4.27 4.27 0 0 0 155.321 15.185 Q 154.655 15.746 154.063 16.602 Q 152.502 18.855 152.041 23.553 A 36.102 36.102 0 0 0 151.957 24.561 L 152.121 24.834 Q 152.066 25.6 152.011 26.502 Q 151.957 27.405 151.957 28.28 A 20.578 20.578 0 0 0 152.132 31.045 Q 152.405 33.059 153.105 34.625 Q 154.206 37.089 155.96 38.372 A 7.023 7.023 0 0 0 156.114 38.482 A 7.81 7.81 0 0 0 157.752 39.36 A 5.921 5.921 0 0 0 159.888 39.767 A 8.85 8.85 0 0 0 163.935 38.773 A 10.375 10.375 0 0 0 164.127 38.673 A 6.634 6.634 0 0 0 165.868 37.3 Q 166.848 36.241 167.656 34.625 L 168.75 35.063 Q 168.093 36.923 166.726 38.728 A 10.299 10.299 0 0 1 163.488 41.511 A 11.915 11.915 0 0 1 163.225 41.654 A 9.638 9.638 0 0 1 160.2 42.631 A 12.689 12.689 0 0 1 158.247 42.776 A 14.361 14.361 0 0 1 154.769 42.371 A 11.479 11.479 0 0 1 151.574 41.053 A 11.141 11.141 0 0 1 147.448 36.603 A 13.584 13.584 0 0 1 147.198 36.102 Q 145.688 32.921 145.666 28.569 A 25.479 25.479 0 0 1 145.666 28.444 A 25.07 25.07 0 0 1 145.928 24.723 Q 146.239 22.654 146.919 20.915 A 14.557 14.557 0 0 1 147.252 20.13 A 13.211 13.211 0 0 1 149.283 16.944 A 11.21 11.21 0 0 1 151.71 14.851 A 11.694 11.694 0 0 1 156.973 13.083 A 14.579 14.579 0 0 1 158.357 13.019 A 12.847 12.847 0 0 1 161.54 13.391 A 8.884 8.884 0 0 1 165.905 15.918 A 8.713 8.713 0 0 1 167.701 18.9 Q 168.2 20.24 168.434 21.908 A 23.112 23.112 0 0 1 168.64 25.108 Z M 196.264 25.108 L 177.392 25.108 L 177.283 24.068 L 190.465 24.068 A 26.071 26.071 0 0 0 190.471 23.536 Q 190.471 21.161 190.028 19.118 A 12.349 12.349 0 0 0 189.582 17.542 Q 189.146 16.335 188.496 15.48 A 3.515 3.515 0 0 0 187.44 14.534 Q 186.725 14.126 185.82 14.113 A 4.164 4.164 0 0 0 185.761 14.113 A 4.27 4.27 0 0 0 182.945 15.185 Q 182.278 15.746 181.686 16.602 Q 180.126 18.855 179.664 23.553 A 36.102 36.102 0 0 0 179.58 24.561 L 179.744 24.834 Q 179.69 25.6 179.635 26.502 Q 179.58 27.405 179.58 28.28 A 20.578 20.578 0 0 0 179.755 31.045 Q 180.029 33.059 180.729 34.625 Q 181.83 37.089 183.583 38.372 A 7.023 7.023 0 0 0 183.737 38.482 A 7.81 7.81 0 0 0 185.375 39.36 A 5.921 5.921 0 0 0 187.512 39.767 A 8.85 8.85 0 0 0 191.558 38.773 A 10.375 10.375 0 0 0 191.751 38.673 A 6.634 6.634 0 0 0 193.492 37.3 Q 194.471 36.241 195.279 34.625 L 196.373 35.063 Q 195.717 36.923 194.349 38.728 A 10.299 10.299 0 0 1 191.112 41.511 A 11.915 11.915 0 0 1 190.848 41.654 A 9.638 9.638 0 0 1 187.823 42.631 A 12.689 12.689 0 0 1 185.871 42.776 A 14.361 14.361 0 0 1 182.392 42.371 A 11.479 11.479 0 0 1 179.197 41.053 A 11.141 11.141 0 0 1 175.072 36.603 A 13.584 13.584 0 0 1 174.821 36.102 Q 173.311 32.921 173.29 28.569 A 25.479 25.479 0 0 1 173.29 28.444 A 25.07 25.07 0 0 1 173.551 24.723 Q 173.862 22.654 174.542 20.915 A 14.557 14.557 0 0 1 174.876 20.13 A 13.211 13.211 0 0 1 176.906 16.944 A 11.21 11.21 0 0 1 179.334 14.851 A 11.694 11.694 0 0 1 184.596 13.083 A 14.579 14.579 0 0 1 185.98 13.019 A 12.847 12.847 0 0 1 189.163 13.391 A 8.884 8.884 0 0 1 193.529 15.918 A 8.713 8.713 0 0 1 195.325 18.9 Q 195.823 20.24 196.057 21.908 A 23.112 23.112 0 0 1 196.264 25.108 Z M 70.837 41.463 L 71.219 42.338 Q 70.071 42.83 69.442 43.924 Q 68.813 45.018 68.813 46.331 Q 68.813 48.738 71.055 50.051 A 8.697 8.697 0 0 0 73.29 50.948 Q 74.901 51.364 76.963 51.364 A 17.304 17.304 0 0 0 80.941 50.916 A 15.895 15.895 0 0 0 81.64 50.734 A 9.086 9.086 0 0 0 83.622 49.923 A 7.234 7.234 0 0 0 85.25 48.683 A 4.82 4.82 0 0 0 86.603 45.769 A 6.583 6.583 0 0 0 86.645 45.018 A 3.989 3.989 0 0 0 86.279 43.298 A 3.951 3.951 0 0 0 85.387 42.092 A 3.218 3.218 0 0 0 84.392 41.484 Q 83.377 41.071 81.734 40.958 A 19.376 19.376 0 0 0 80.409 40.916 L 76.58 40.916 A 19.639 19.639 0 0 1 74.348 40.794 A 16.057 16.057 0 0 1 73.025 40.588 A 6.309 6.309 0 0 1 71.709 40.18 A 4.676 4.676 0 0 1 70.372 39.302 A 3.116 3.116 0 0 1 69.49 37.75 Q 69.368 37.256 69.36 36.673 A 5.965 5.965 0 0 1 69.36 36.595 A 4.85 4.85 0 0 1 70.096 34.054 A 7.077 7.077 0 0 1 71.001 32.875 Q 72.483 31.294 75.795 29.757 A 35.332 35.332 0 0 1 76.525 29.429 L 77.182 29.921 A 29.6 29.6 0 0 0 75.684 30.803 A 22.881 22.881 0 0 0 74.365 31.699 A 3.484 3.484 0 0 0 73.67 32.36 A 2.462 2.462 0 0 0 73.134 33.914 Q 73.134 35.375 74.887 35.617 A 5.614 5.614 0 0 0 75.65 35.665 L 82.159 35.665 A 15.407 15.407 0 0 1 85.263 35.963 A 11.501 11.501 0 0 1 88.669 37.224 A 5.154 5.154 0 0 1 91.282 40.961 A 8.014 8.014 0 0 1 91.404 42.393 A 7.837 7.837 0 0 1 90.172 46.589 A 9.88 9.88 0 0 1 89.735 47.234 A 9.686 9.686 0 0 1 87.492 49.399 Q 86.463 50.126 85.163 50.711 A 17.448 17.448 0 0 1 84.73 50.899 Q 82.018 52.032 78.185 52.245 A 33.018 33.018 0 0 1 76.361 52.293 A 27.327 27.327 0 0 1 72.888 52.081 A 22.211 22.211 0 0 1 70.7 51.692 A 13.978 13.978 0 0 1 68.897 51.152 Q 67.517 50.628 66.543 49.859 A 4.227 4.227 0 0 1 65.491 48.675 A 3.821 3.821 0 0 1 64.984 46.714 A 3.962 3.962 0 0 1 66.014 44.047 A 5.624 5.624 0 0 1 66.515 43.541 Q 67.751 42.438 69.805 41.762 A 15.734 15.734 0 0 1 70.837 41.463 Z M 209.884 23.795 L 209.884 36.376 A 7.567 7.567 0 0 0 209.976 37.605 Q 210.253 39.282 211.361 39.959 A 5.384 5.384 0 0 0 212.72 40.535 Q 213.375 40.718 214.161 40.799 A 12.828 12.828 0 0 0 215.463 40.861 L 215.463 42.01 A 225.122 225.122 0 0 0 214.768 41.981 Q 213.981 41.949 212.912 41.91 A 890.418 890.418 0 0 0 211.88 41.873 A 128.946 128.946 0 0 0 209.494 41.812 A 149.811 149.811 0 0 0 206.985 41.791 A 94.593 94.593 0 0 0 203.046 41.873 A 568.157 568.157 0 0 0 202.12 41.912 Q 200.817 41.969 200.038 42.01 L 200.038 40.861 A 8.768 8.768 0 0 0 201.084 40.803 Q 202.209 40.668 202.856 40.214 A 2.193 2.193 0 0 0 203.074 40.041 A 2.196 2.196 0 0 0 203.597 39.281 Q 203.976 38.412 203.976 36.923 L 203.976 19.747 A 11.785 11.785 0 0 0 203.911 18.464 Q 203.746 16.955 203.156 16.109 A 2.397 2.397 0 0 0 202.109 15.285 Q 201.294 14.933 200.038 14.933 L 200.038 13.785 A 36.821 36.821 0 0 0 203.017 13.946 A 33.235 33.235 0 0 0 203.429 13.949 A 31.907 31.907 0 0 0 205.645 13.875 A 26.044 26.044 0 0 0 206.903 13.757 A 21.243 21.243 0 0 0 208.801 13.448 A 17.353 17.353 0 0 0 209.884 13.183 L 209.884 19.473 A 14.191 14.191 0 0 1 211.368 16.781 A 15.933 15.933 0 0 1 211.634 16.41 A 9.53 9.53 0 0 1 214.26 13.976 Q 215.792 13.019 217.651 13.019 Q 219.238 13.019 220.359 13.675 A 4.929 4.929 0 0 1 221.422 14.499 A 4.18 4.18 0 0 1 222.055 15.344 A 4.438 4.438 0 0 1 222.62 17.303 A 5.32 5.32 0 0 1 222.629 17.614 A 4.371 4.371 0 0 1 222.382 19.105 A 3.892 3.892 0 0 1 221.672 20.321 A 3.128 3.128 0 0 1 219.378 21.435 A 4.284 4.284 0 0 1 219.128 21.443 A 3.784 3.784 0 0 1 217.881 21.244 A 3.308 3.308 0 0 1 216.803 20.622 A 2.69 2.69 0 0 1 215.871 18.82 A 3.831 3.831 0 0 1 215.846 18.379 A 3.835 3.835 0 0 1 215.98 17.346 A 3.081 3.081 0 0 1 216.475 16.328 Q 217.104 15.48 217.925 14.988 A 1.77 1.77 0 0 0 216.821 14.599 Q 216.718 14.598 216.612 14.605 A 5.131 5.131 0 0 0 213.376 15.992 A 6.643 6.643 0 0 0 213.139 16.219 A 10.749 10.749 0 0 0 211.018 19.269 A 12.568 12.568 0 0 0 210.759 19.856 A 13.059 13.059 0 0 0 210.176 21.598 Q 209.884 22.751 209.884 23.795 Z M 105.243 13.183 L 105.243 36.923 A 9.132 9.132 0 0 0 105.299 37.977 Q 105.426 39.069 105.843 39.688 A 1.934 1.934 0 0 0 106.145 40.041 Q 106.98 40.799 108.866 40.856 A 10.386 10.386 0 0 0 109.181 40.861 L 109.181 42.01 A 78.869 78.869 0 0 0 108.653 41.981 Q 107.787 41.936 106.38 41.876 A 505.482 505.482 0 0 0 106.309 41.873 A 93.957 93.957 0 0 0 102.344 41.791 A 97.02 97.02 0 0 0 98.532 41.868 A 105.711 105.711 0 0 0 98.405 41.873 A 454.878 454.878 0 0 0 97.458 41.912 Q 96.151 41.968 95.414 42.009 A 71.57 71.57 0 0 0 95.397 42.01 L 95.397 40.861 A 8.768 8.768 0 0 0 96.443 40.803 Q 97.568 40.668 98.215 40.214 A 2.193 2.193 0 0 0 98.433 40.041 A 2.196 2.196 0 0 0 98.956 39.281 Q 99.335 38.412 99.335 36.923 L 99.335 19.747 A 11.785 11.785 0 0 0 99.27 18.464 Q 99.104 16.955 98.515 16.109 A 2.397 2.397 0 0 0 97.468 15.285 Q 96.653 14.933 95.397 14.933 L 95.397 13.785 A 36.821 36.821 0 0 0 98.376 13.946 A 33.235 33.235 0 0 0 98.788 13.949 A 31.907 31.907 0 0 0 101.003 13.875 A 26.044 26.044 0 0 0 102.262 13.757 A 21.243 21.243 0 0 0 104.16 13.448 A 17.353 17.353 0 0 0 105.243 13.183 Z M 73.284 29.968 A 14.152 14.152 0 0 0 76.689 30.359 Q 80.956 30.359 83.828 28.28 Q 85.813 26.843 86.426 24.255 A 11.021 11.021 0 0 0 86.7 21.716 A 13.985 13.985 0 0 0 86.697 21.426 Q 86.668 20.036 86.36 18.886 A 6.619 6.619 0 0 0 83.828 15.097 A 10.577 10.577 0 0 0 79.984 13.375 A 14.479 14.479 0 0 0 76.689 13.019 A 14.835 14.835 0 0 0 74.155 13.227 A 10.943 10.943 0 0 0 69.578 15.097 A 6.456 6.456 0 0 0 68.346 16.246 Q 67.349 17.459 66.948 19.178 A 11.185 11.185 0 0 0 66.679 21.716 A 13.822 13.822 0 0 0 66.679 21.76 Q 66.694 26.212 69.578 28.28 A 10.703 10.703 0 0 0 73.284 29.968 Z M 19.2 14.769 L 20.458 14.769 A 116.645 116.645 0 0 0 20.373 16.082 Q 20.245 18.252 20.266 19.528 A 207.931 207.931 0 0 1 20.287 21.101 A 158.219 158.219 0 0 1 20.294 22.537 A 79.121 79.121 0 0 0 20.307 23.972 A 104.05 104.05 0 0 0 20.348 25.545 A 64.554 64.554 0 0 0 20.386 26.458 Q 20.458 27.966 20.622 30.304 L 19.364 30.304 Q 19.09 28.499 18.653 26.831 A 6.116 6.116 0 0 0 18.032 25.298 A 5.065 5.065 0 0 0 17.094 24.123 Q 16.253 23.344 14.722 23.149 A 8.731 8.731 0 0 0 13.62 23.084 L 13.62 21.99 A 7.098 7.098 0 0 0 14.873 21.887 Q 15.553 21.765 16.082 21.497 A 3.105 3.105 0 0 0 17.039 20.759 Q 18.106 19.528 18.516 17.832 Q 18.913 16.191 19.182 14.858 A 56.468 56.468 0 0 0 19.2 14.769 Z M 79.467 27.991 A 4.409 4.409 0 0 0 79.643 27.733 A 4.769 4.769 0 0 0 80.145 26.595 Q 80.521 25.383 80.634 23.478 A 29.885 29.885 0 0 0 80.683 21.716 A 29.005 29.005 0 0 0 80.619 19.712 Q 80.486 17.801 80.076 16.61 A 4.614 4.614 0 0 0 79.643 15.672 Q 78.655 14.085 76.874 14.007 A 4.252 4.252 0 0 0 76.689 14.003 A 3.199 3.199 0 0 0 74.187 15.148 A 4.654 4.654 0 0 0 73.79 15.672 A 4.79 4.79 0 0 0 73.261 16.824 Q 72.696 18.571 72.696 21.716 A 27.545 27.545 0 0 0 72.763 23.704 Q 72.899 25.587 73.319 26.763 A 4.435 4.435 0 0 0 73.79 27.733 A 4.096 4.096 0 0 0 74.647 28.684 A 3.193 3.193 0 0 0 76.689 29.374 Q 78.447 29.374 79.467 27.991 Z M 84.785 17.614 L 83.8 17.231 A 7.477 7.477 0 0 1 85.54 14.66 A 9.496 9.496 0 0 1 86.426 13.894 A 7.397 7.397 0 0 1 88.085 12.922 A 5.764 5.764 0 0 1 90.31 12.472 A 4.483 4.483 0 0 1 91.329 12.581 A 3.027 3.027 0 0 1 92.744 13.32 A 2.769 2.769 0 0 1 93.545 14.747 A 4.194 4.194 0 0 1 93.646 15.699 A 4.994 4.994 0 0 1 93.576 16.57 Q 93.394 17.593 92.744 18.106 A 3.585 3.585 0 0 1 91.968 18.579 A 2.74 2.74 0 0 1 90.857 18.817 A 2.453 2.453 0 0 1 89.406 18.34 A 3.136 3.136 0 0 1 89.243 18.215 A 2.105 2.105 0 0 1 88.624 17.353 Q 88.491 17.025 88.429 16.619 A 4.465 4.465 0 0 1 88.395 16.328 Q 88.286 15.043 89.216 13.019 L 89.817 13.238 Q 87.763 14.059 86.746 14.953 A 4.714 4.714 0 0 0 86.617 15.07 Q 85.606 16.027 84.785 17.614 Z M 103.43 0.235 A 4.45 4.45 0 0 0 101.961 0 A 5.177 5.177 0 0 0 101.673 0.008 A 3.96 3.96 0 0 0 99.116 1.067 A 3.592 3.592 0 0 0 98.311 2.14 A 3.588 3.588 0 0 0 97.968 3.72 Q 97.968 5.306 99.116 6.373 A 3.869 3.869 0 0 0 100.491 7.205 A 4.45 4.45 0 0 0 101.961 7.439 A 5.177 5.177 0 0 0 102.248 7.432 A 3.96 3.96 0 0 0 104.805 6.373 A 3.592 3.592 0 0 0 105.61 5.299 A 3.588 3.588 0 0 0 105.954 3.72 Q 105.954 2.134 104.805 1.067 A 3.869 3.869 0 0 0 103.43 0.235 Z M 8.971 21.99 L 18.872 21.99 L 18.872 22.537 L 18.872 23.084 L 8.971 23.084 L 8.971 22.537 L 8.971 21.99 Z"></path>
        </g>
    </g>
</svg>
